<?xml version="1.0" encoding="utf-8"?>
<!-- Generator: Adobe Illustrator 19.0.1, SVG Export Plug-In . SVG Version: 6.00 Build 0)  -->
<svg version="1.1" id="Layer_1" xmlns="http://www.w3.org/2000/svg" xmlns:xlink="http://www.w3.org/1999/xlink" x="0px" y="0px"
	 viewBox="244.4 380 182.6 64.1" style="enable-background:new 244.4 380 182.6 64.1;" xml:space="preserve">
<style type="text/css">
	.st0{fill:#A5A4A4;}
	.st1{fill:#040404;}
	.st2{fill:#E69137;}
	.st3{fill:#747070;}
	.st4{fill:#B7B3B3;}
	.st5{fill:#585350;}
	.st6{fill:#5E5855;}
	.st7{fill:#47413C;}
	.st8{fill:#FFFFFF;}
	.st9{fill:#484748;}
	.st10{fill:#FFFFFF;stroke:#000000;stroke-miterlimit:10;}
</style>
<path id="XMLID_265_" class="st0" d="M255.7,436.4c-0.8-0.7-1.8-1.5-2.7-2.6c-1.1-1.1-1.8-2.1-2.1-2.6c-0.3-0.4-0.5-0.8-0.7-1.1"/>
<path id="XMLID_4_" class="st0" d="M304.3,426.7c0.1-0.1,0.2-0.2,0.3-0.3c0.2,0,0.3-0.1,0.5-0.1c0,0,0,0.1,0,0.1
	c0,0.1-0.1,0.2-0.1,0.3c0,0,0,0.1-0.1,0.2c-0.1,0.2-0.1,0.3-0.2,0.4c-0.1,0.2-0.1,0.3-0.2,0.4c-0.5,0.9-0.8,1.3-0.9,1.5
	c-0.1,0.2-0.4,0.7-0.9,1.4c-0.6,0.9-1.1,1.5-1.3,1.7c-0.4,0.5-0.7,0.8-1.3,1.4s-0.9,0.9-1.3,1.4c-0.3,0.3-1,1-2,1.8
	c-0.4,0.3-1,0.8-2,1.5c-1.1,0.8-2,1.3-2.9,1.8c-0.8,0.4-1.2,0.7-1.9,1c-0.9,0.4-1.6,0.6-2.4,0.9c-0.5,0.2-1.6,0.6-3.2,1
	c-1,0.3-1.9,0.5-3.1,0.7c-1.1,0.2-1.9,0.2-2.5,0.3c-0.4,0-1.5,0.1-2.9,0.1c-0.8,0-1.6,0-2.6-0.1c-1.3-0.1-2.2-0.3-3-0.5
	c-0.4-0.1-1.3-0.3-2.3-0.6c-1.9-0.5-3.3-1.1-3.5-1.2c-0.6-0.2-2.2-0.9-4.1-2c-1.7-1-2.9-1.9-3.5-2.4c-0.5-0.4-1-0.9-1-0.9
	c-0.1-0.1-0.5-0.4-1-0.9c-0.5-0.5-0.5-0.5-1.2-1.2c-0.5-0.5-0.5-0.5-0.7-0.7c-0.5-0.6-1-1.1-0.9-1.2c0,0,0.1,0,0.1,0.1
	c0,0,0.1,0,0.1,0.1c0.1,0.1,0.1,0.1,0.1,0.2c0,0,0.1,0.1,0.1,0.1c0.1,0.1,0.2,0.2,0.2,0.2c0.1,0.1,0.5,0.5,1.1,1.1
	c0.4,0.4,0.3,0.3,0.7,0.6c0.3,0.3,0.4,0.4,0.7,0.7c0.1,0.1,0.2,0.2,0.5,0.5c0.4,0.4,1,0.8,1.7,1.4c0.3,0.2,0.5,0.4,0.8,0.6
	c0.4,0.3,0.8,0.6,1.4,0.9c0.7,0.5,1.3,0.8,1.7,0.9c0.4,0.2,0.9,0.5,1,0.5c0.4,0.2,0.4,0.2,0.7,0.3c0.5,0.2,0.6,0.3,0.9,0.4
	c0.3,0.1,0.2,0.1,0.6,0.3c0.5,0.2,0.6,0.3,1,0.4c0.2,0.1,0.3,0.1,0.6,0.2c0.3,0.1,0.5,0.2,0.6,0.2c0.2,0.1,0.4,0.1,0.5,0.2
	c0.1,0,0.3,0.1,0.7,0.2c0.2,0,0.3,0.1,0.4,0.1c0,0,0.1,0,0.2,0.1c0.1,0,0.1,0,0.2,0c0.1,0,0.1,0,0.2,0.1c0.1,0,0.1,0,0.2,0.1
	c0.1,0,0.2,0,0.3,0.1c0.1,0,0.3,0.1,0.7,0.2c0.2,0,0.3,0.1,0.4,0.1c0.1,0,0.3,0.1,0.7,0.1c0.1,0,0.2,0,0.5,0.1
	c0.5,0.1,0.7,0.1,0.8,0.1c0.4,0.1,0.7,0.1,0.9,0.1c0.4,0,0.6,0.1,0.7,0.1c0.1,0,0.3,0,0.5,0c0.5,0,0.8,0.1,1.2,0.1
	c0.1,0,0.6,0,1.2,0c0.3,0,0.7,0,1.1,0c0.1,0,0.5,0,1-0.1c0.2,0,0.5,0,1-0.1c0.4,0,0.7-0.1,1-0.1c0.3,0,0.6-0.1,1-0.2
	c0.1,0,0.1,0,1-0.2c0.8-0.2,0.8-0.2,1-0.2c0.2-0.1,0.4-0.1,0.8-0.2c0.4-0.1,0.7-0.2,1-0.3c0.5-0.1,0.7-0.2,0.9-0.3
	c0.2-0.1,0.4-0.2,0.9-0.4c0.2-0.1,0.3-0.1,0.5-0.3c0.1-0.1,0.2-0.1,0.3-0.2l0.1,0l0.2-0.1c0.2-0.1,0.3-0.1,0.4-0.2
	c0.1,0,0.1,0,0.4-0.2c0.3-0.1,0.3-0.1,0.4-0.2c0.1-0.1,0.2-0.1,0.4-0.2c0.1-0.1,0.3-0.1,0.5-0.3c0.1,0,0.3-0.2,0.6-0.3
	c0.3-0.2,0.6-0.3,0.9-0.5c0.4-0.2,0.6-0.3,0.8-0.5c0.3-0.2,0.5-0.3,0.7-0.4c0.3-0.2,0.6-0.4,0.7-0.5c0.2-0.1,0.4-0.3,0.7-0.5
	c0.1-0.1,0.3-0.2,0.5-0.4c0.1-0.1,0.3-0.2,0.7-0.5c0.4-0.3,0.7-0.6,0.8-0.6c1-0.8,2.8-3.1,3.4-3.9c0.6-0.7,1.1-1.4,1.7-2.2
	s1.2-1.6,1.6-2.2"/>
<g id="XMLID_1_">
	<g id="XMLID_2_">
		<path id="XMLID_134_" class="st1" d="M252,432.6c0,0-0.1-0.1-0.1-0.1c-0.1-0.1-0.1-0.2-0.2-0.3c-0.1-0.1-0.1-0.1-0.2-0.2
			c-0.1-0.1-0.1-0.2-0.2-0.3c-0.1-0.1-0.1-0.1-0.2-0.2c-0.1-0.1-0.1-0.2-0.2-0.3l0,0c-0.1-0.1-0.1-0.1-0.2-0.2
			c0-0.1-0.1-0.1-0.1-0.2c-0.1-0.1-0.1-0.2-0.2-0.2c-0.8-1.4-1.7-2.7-2.5-4.1c-1.3-2.4-2.2-5.1-2.8-7.8c-0.5-2.1-0.8-4.2-0.8-6.4
			c-0.1-3.5,0.5-6.9,1.6-10.2c1.1-3.3,2.6-6.5,4.8-9.3c2.5-3.3,5.5-6,9.1-8.1c3.2-1.9,6.7-3.3,10.4-4c1.3-0.3,2.6-0.4,3.9-0.5
			c1.4-0.1,2.9-0.2,4.3-0.1c1.5,0.1,3,0.4,4.4,0.6c0.1,0,0.2,0.1,0.3,0.2c-1.1,0-2.1,0-3.2,0c-0.2,0-0.5-0.2-0.6,0.1
			c-0.3,0-0.5,0-0.8,0c-0.2,0-0.4-0.2-0.5,0.1c-0.1,0-0.3,0-0.5,0c-0.2,0-0.4-0.1-0.5,0.1c-0.1,0-0.1,0-0.2,0
			c-0.2,0-0.3-0.1-0.4,0.1c-0.1,0-0.1,0-0.2,0c-0.2,0-0.3-0.1-0.4,0.1c-0.1,0-0.1,0-0.2,0c-0.1,0-0.1,0-0.2,0
			c-0.9,0.2-1.7,0.4-2.5,0.7c-3,0.9-5.8,2.2-8.4,4c-1,0.7-2,1.5-2.9,2.3c-0.6,0.5-1.1,1-1.7,1.6c-0.4,0.5-0.9,1-1.3,1.5
			c-0.6,0.8-1.2,1.5-1.8,2.3c-1,1.5-1.8,3-2.5,4.7c-0.7,1.7-1.3,3.5-1.8,5.4c0,0.1,0,0.2,0.1,0.3c0,0.1,0,0.1,0,0.2
			c-0.2,0-0.3,0.1-0.1,0.3c0,0.1,0,0.1,0,0.2c-0.2,0-0.3,0.1-0.1,0.3c0,0.1,0,0.1,0,0.2c-0.2,0-0.2,0.2-0.1,0.3c0,0.1,0,0.2,0,0.3
			c-0.2,0.1-0.1,0.3-0.1,0.4c0,0.1,0,0.3,0,0.4c-0.3,0.1-0.1,0.3-0.1,0.5c0,0.3,0,0.5,0,0.8c-0.3,0.1-0.2,0.3-0.1,0.4
			c0,1.3,0,2.5,0.1,3.8c0.1,1.5,0.3,2.9,0.7,4.4c0.5,2.2,1.2,4.3,2.3,6.3c0.9,1.7,1.9,3.3,3.1,4.9c0.4,0.5,0.9,1,1.3,1.5
			c0,0,0.1,0.1,0.1,0.1c0.4,0.4,0.8,0.9,1.2,1.3c0.1,0.1,0.1,0.1,0.2,0.2c0.3,0.2,0.5,0.5,0.8,0.7c0.2,0.1,0.3,0.3,0.5,0.4
			c0.1,0.1,0.1,0.1,0.2,0.2c3.6,3,7.8,4.9,12.3,6c2.4,0.5,4.9,0.8,7.4,0.6c1.4-0.1,2.7-0.4,4-0.6c2.1-0.3,4.1-1,6-1.8
			c1.9-0.8,3.6-1.8,5.2-2.9c2.6-1.8,4.8-4,6.7-6.5c0-0.1,0.1-0.1,0.2-0.2c-0.1,0.3-0.3,0.6-0.4,0.9c-0.1,0.2-0.2,0.3-0.3,0.5
			c-1.1,2-2.5,3.8-4,5.4c-1,1.1-2.1,2.1-3.3,3c-1.7,1.4-3.6,2.5-5.5,3.6c-2.1,1.2-4.4,1.9-6.8,2.5c-1.2,0.3-2.5,0.5-3.7,0.7
			c-1,0.1-2,0.2-3,0.3c-0.8,0-1.6,0-2.4,0c-0.4,0-0.8,0-1.2,0c-1.1-0.1-2.2-0.3-3.2-0.5c-1.8-0.3-3.6-0.8-5.3-1.4
			c-0.2-0.1-0.4-0.1-0.6-0.1c-0.1,0-0.2-0.1-0.2-0.1c-0.1,0-0.2-0.1-0.3-0.1c-0.1-0.1-0.3-0.1-0.4-0.2c-0.1,0-0.2-0.1-0.3-0.1
			c-1.2-0.6-2.3-1.1-3.5-1.8c-1.8-1-3.4-2.3-4.9-3.7c-0.8-0.8-1.6-1.5-2.4-2.3l0,0C252.4,433,252.2,432.8,252,432.6z"/>
		<path id="XMLID_133_" class="st2" d="M377.8,430.9c-0.6-0.7-0.8-1.6-0.9-2.5c-0.1-1.3,0.2-2.5,0.5-3.7c0.6-2.2,1.4-4.4,2.5-6.4
			c0.8-1.5,2-2.3,3.6-2.7c0.4-0.1,0.9-0.1,1.3-0.1c3,0,5.9,0,8.8,0c0.2,0,0.4-0.1,0.5,0.2c-0.3,1.1-0.7,2.2-1,3.2
			c-0.2,0.5,0,0.5-0.7,0.5c-2.2,0-4.4,0-6.6,0c-0.6,0-1,0.3-1.4,0.8c-0.9,1.4-1.4,3-1.8,4.6c-0.2,0.7-0.3,1.5-0.4,2.2
			c-0.1,0.4,0.1,0.8,0.5,1c0.4,0.1,0.7,0.2,1.1,0.2c0.6,0,1.3,0,2,0c0.3,0,0.3-0.2,0.4-0.4c0.3-1,0.7-2,1-3c0.1-0.3,0.2-0.4,0.6-0.4
			c1.1,0,2.2,0,3.3,0c0.7,0,1.1-0.2,1.4-0.8c0.5-1,1.2-1.8,2.1-2.4c0.4-0.3,0.9-0.5,1.3-0.6c0.3-0.1,0.4-0.2,0.5-0.5
			c0.4-1.4,0.9-2.8,1.3-4.2c0.1-0.4,0.2-0.4,0.6-0.4c1.4,0,2.7,0,4,0c0.1,0,0.4-0.1,0.4,0.2c-0.4,1.4-0.8,2.7-1.3,4.1
			c-0.1,0.4-0.1,0.5,0.4,0.4c0.9,0,1.8,0,2.8,0c0.3,0,0.4-0.1,0.5-0.4c0.4-1.3,0.8-2.7,1.2-4c0.1-0.3,0.2-0.4,0.5-0.4
			c1.4,0,2.8,0,4.2,0c0.1,0,0.4-0.1,0.4,0.2c-0.3,0.9-0.6,1.9-0.9,2.8c-0.2,0.7-0.4,1.4-0.6,2c0,0.1,0,0.1-0.1,0.2c0,0,0,0,0,0
			c0-0.1,0-0.1,0-0.2c0.1-0.1,0.2-0.1,0.2-0.2c0.3-0.5,0.5-0.9,0.8-1.4c0.5-0.6,1-1.3,1.6-1.8c1.3-1.1,2.7-1.5,4.4-1.6
			c1.1-0.1,2.3,0,3.4,0c2,0,4,0,5.9,0c0.1,0,0.4-0.1,0.4,0.2c-0.1,0.2-0.2,0.4-0.2,0.6c-0.3,0.8-0.5,1.7-0.8,2.5
			c-0.2,0.6,0,0.5-0.7,0.5c-1,0-2.1,0-3.1,0c-0.5,0-0.5,0-0.6,0.5c-1.2,3.9-2.4,7.7-3.5,11.6c-0.1,0.3-0.2,0.4-0.5,0.4
			c-1.4,0-2.9,0-4.3,0c-0.3,0-0.2-0.2-0.2-0.4c0.2-0.7,0.4-1.3,0.6-2c0.9-3.1,1.9-6.2,2.9-9.4c0-0.1,0.1-0.3,0.1-0.4
			c0.1-0.2,0.1-0.4-0.2-0.4c-0.9,0.1-1.8,0.1-2.7,0.1c-1.2,0.1-2.3,0.5-3.1,1.6c-0.1,0.1-0.2,0.3-0.4,0.3c-0.2,0.1-0.3,0.2-0.3,0.3
			c-0.3,0.8-0.5,1.6-0.8,2.5c-0.7,2.4-1.5,4.8-2.2,7.3c-0.1,0.3-0.2,0.4-0.6,0.4c-1.4,0-2.8,0-4.2,0c-0.3,0-0.3-0.1-0.2-0.3
			c0.4-1.1,0.7-2.3,1.1-3.4c0.4-1.3,0.8-2.7,1.3-4c0.1-0.4,0.1-0.4-0.3-0.4c-0.9,0-1.8,0-2.7,0c-0.6,0-0.6,0-0.8,0.5
			c-0.7,2.4-1.5,4.8-2.2,7.2c-0.1,0.3-0.2,0.4-0.6,0.4c-1.4,0-2.8,0-4.3,0c-0.3,0-0.3-0.1-0.2-0.3c0.3-1,0.6-2,0.9-3
			c0.4-1.4,0.9-2.8,1.3-4.2c0-0.1,0-0.1,0-0.2c0.1-0.2,0.1-0.3-0.2-0.3c-1,0.2-1.9,0.6-2.7,1.2c-0.2,0.1-0.3,0.4-0.4,0.6
			c-0.2,0.7-0.4,1.4-0.7,2c-0.4,1.3-0.8,2.5-1.2,3.8c0,0.1,0,0.4-0.3,0.4c-0.8,0-1.7,0.1-2.5,0.2c-0.6,0-1.2,0.1-1.8,0.1
			c-0.9,0-1.7,0.1-2.6,0c-1.1-0.1-2.2-0.2-3.3-0.3c-0.3-0.1-0.7-0.3-1-0.4l0,0c0,0-0.1-0.1-0.1-0.1l0,0c0,0-0.1-0.1-0.1-0.1l0,0
			c0,0-0.1-0.1-0.1-0.1l0,0c0,0-0.1-0.1-0.1-0.1l0,0c0,0-0.1-0.1-0.1-0.1l0,0C377.9,431,377.9,431,377.8,430.9
			C377.8,431,377.8,431,377.8,430.9C377.8,430.9,377.8,430.9,377.8,430.9z"/>
		<path id="XMLID_129_" class="st2" d="M310.1,431.9c-0.1-0.1-0.2-0.1-0.2-0.2c0-0.2,0.1-0.5,0.1-0.7c1.1-3.7,2.3-7.3,3.4-11
			c0-0.2,0.1-0.4,0.1-0.5c0.1-0.2,0.1-0.3,0.2-0.5c-0.1,0-0.2,0-0.3,0c-1,0.3-1.8,0.8-2.4,1.6c-0.2,0-0.3-0.1-0.2-0.3
			c0.7-1.3,1.4-2.6,2.5-3.5c0.9-0.7,1.9-1,3-1.2c2.1-0.3,4.2-0.2,6.3-0.2c1.3,0,2.6,0,3.8,0.3c0.1,0,0.3,0.1,0.2-0.1
			c0-0.2,0.1-0.2,0.3-0.2c1.4,0,2.7,0,4.1,0c0.1,0,0.2,0.1,0.4,0.2c0.1,0.4,0.3,0.8,0.4,1.2c0.5,1.5,1,3.1,1.5,4.6
			c0.1,0.4,0.1,0.4,0.4,0.1c1.8-1.9,3.7-3.8,5.6-5.7c0.3-0.3,0.6-0.5,1-0.5c1.4,0,2.7,0,4.1,0c0.1,0,0.3,0,0.4,0c0,0,0,0.1,0,0.2
			c-0.8,0.8-1.7,1.5-2.5,2.3c-2.3,2.2-4.6,4.4-6.9,6.6c-0.1,0.1-0.2,0.3-0.3,0.4c-0.7,2.1-1.3,4.2-2,6.4c-0.1,0.5-0.1,0.5-0.7,0.5
			c-1.4,0-2.7,0-4,0c-0.3,0-0.2-0.2-0.2-0.4c0.3-0.9,0.5-1.7,0.8-2.6c0.4-1.3,0.8-2.6,1.2-3.9c0.1-0.3,0.1-0.5,0-0.7
			c-0.6-1.4-1.1-2.8-1.7-4.1c-0.1-0.3-0.2-0.5-0.3-0.9c-0.7,2.1-1.9,3.6-4,4.4c0.3,0.1,0.5,0.2,0.7,0.3c0.1,0.1,0.1,0.1,0.2,0.2h0
			c0,0,0.1,0.1,0.1,0.1l0,0c0,0,0,0,0.1,0c0,0,0,0,0.1,0.1h0v0c0.5,0.7,0.6,1.5,0.4,2.4c-0.1,0.4-0.2,0.7-0.3,1
			c-0.7,1.8-1.9,3.1-3.8,3.6c-0.8,0.2-1.7,0.3-2.6,0.3c-1.4,0-2.9,0-4.3,0C313.3,431.9,311.7,431.9,310.1,431.9z M323.2,419
			L323.2,419c-0.1-0.3-0.3-0.4-0.7-0.4c-1.2,0-2.3,0-3.5,0c-0.2,0-0.3,0-0.4,0.3c-0.3,1-0.6,2-0.9,3c-0.1,0.4,0,0.4,0.4,0.3
			c1,0,1.9,0,2.9,0c1.1-0.1,2.1-0.9,2.5-2c0.1-0.4,0.1-0.8-0.1-1.1C323.3,419,323.3,419,323.2,419z M321.2,425.8L321.2,425.8
			c-0.2-0.5-0.8-0.6-1.2-0.6c-1,0-1.9,0-2.9,0c-0.3,0-0.4,0.1-0.5,0.4c-0.3,1-0.6,2-0.9,3c-0.1,0.4-0.1,0.4,0.3,0.4
			c0.9,0,1.7,0,2.5,0c1.4,0,2.3-0.7,2.8-2C321.5,426.6,321.6,426.2,321.2,425.8C321.3,425.8,321.3,425.8,321.2,425.8z"/>
		<path id="XMLID_128_" class="st2" d="M305.2,409.1c-0.2,0-0.3-0.1-0.2-0.3c0.2-0.7,0.4-1.5,0.7-2.2c1.4-4.5,2.7-9,4.1-13.5
			c0.1-0.3,0.2-0.4,0.6-0.4c1.5,0,2.9,0,4.4,0c0.7,0,1.4,0.2,1.9,0.6c0,0,0,0,0.1,0.1l0,0c0,0,0.1,0,0.1,0.1l0,0
			c0,0,0.1,0.1,0.1,0.1l0,0c0.1,0.4,0.3,0.8,0.4,1.2c0.2,1,0.4,2,0.6,3.1c0,0.1,0,0.1,0.1,0.2c0.1,0,0.1-0.1,0.2-0.1
			c0,0,0.1-0.1,0.1-0.2c0.9-1.2,1.9-2.3,2.8-3.5c0.8-1,1.8-1.6,3.1-1.6c1.4,0,2.8,0,4.2,0c0.1,0,0.3-0.1,0.3,0.2
			c-0.6,2-1.2,4-1.8,5.9c-1,3.3-2,6.6-3,9.8c-0.1,0.3-0.2,0.4-0.6,0.4c-1.4,0-2.8,0-4.2,0c-0.3,0-0.3-0.1-0.2-0.3
			c0.4-1.1,0.7-2.3,1.1-3.5c0.5-1.8,1.1-3.5,1.6-5.3c0-0.1,0-0.2,0.1-0.3l0,0c0-0.1,0.1-0.2,0.2-0.3c0.1-0.4,0.3-0.8,0.4-1.2
			c-0.2,0-0.3,0.1-0.4,0.2c-1.7,2.1-3.5,4.2-5.2,6.3c-0.4,0.5-0.9,1-1.6,0.8c-0.2,0-0.2-0.2-0.2-0.4c-0.4-2.1-0.8-4.3-1.3-6.4
			c-0.1-0.3-0.1-0.6-0.2-0.9c-0.1,0.1-0.2,0.2-0.2,0.3c-1.1,3.5-2.1,7-3.2,10.5c-0.1,0.3-0.2,0.4-0.6,0.4
			C308,409.1,306.6,409.1,305.2,409.1z"/>
		<path id="XMLID_127_" class="st2" d="M361.9,424.2c0.8-2.7,1.7-5.4,2.5-8.1c0.2-0.5,0.2-0.5,0.7-0.5c1.3,0,2.5,0,3.8,0
			c0.1,0,0.4-0.1,0.4,0.2c-0.1,0.1-0.1,0.3-0.2,0.5c-1.5,5.1-3.1,10.2-4.6,15.2c-0.1,0.4-0.1,0.4-0.6,0.4c-1.8,0-3.5,0-5.3,0
			c-0.2,0-0.2-0.2-0.2-0.4c-0.5-2.4-1-4.8-1.5-7.2c-0.2-0.9-0.4-1.8-0.6-2.7c0-0.3-0.1-0.6-0.1-0.9c-0.1,0.1-0.2,0.3-0.2,0.4
			c-1,3.5-2.1,6.9-3.1,10.4c-0.2,0.5-0.1,0.4-0.6,0.4c-1.4,0-2.8,0-4.1,0c-0.2,0-0.3,0-0.2-0.3c0.2-0.7,0.5-1.5,0.7-2.2
			c1.4-4.5,2.7-8.9,4.1-13.4c0.1-0.5,0.1-0.5,0.7-0.5c1.4,0,2.8,0,4.2,0c0.7,0,1.4,0.1,1.9,0.6l0,0c0.1,0,0.1,0.1,0.2,0.1
			c0.1,0,0.1,0.1,0.1,0.1l0,0c0.2,0.4,0.4,0.8,0.5,1.2c0.4,2,0.8,3.9,1.1,5.9c0.1,0.5,0.2,1,0.3,1.5c0.1-0.1,0.1-0.3,0.2-0.4
			C361.9,424.4,361.9,424.3,361.9,424.2z"/>
		<path id="XMLID_124_" class="st2" d="M354.1,409.1c-0.1-0.1-0.2-0.3-0.2-0.4c-0.4-1.1-0.8-2.3-1.2-3.4c-0.1-0.2-0.1-0.4-0.2-0.6
			c0-0.3-0.1-0.4-0.4-0.4c-0.8,0-1.6,0-2.4,0c-0.3,0-0.5,0.1-0.6,0.4c-0.4,1.3-0.8,2.5-1.1,3.8c-0.1,0.5-0.1,0.5-0.6,0.5
			c-1.4,0-2.7,0-4,0c-0.3,0-0.2-0.1-0.2-0.3c0.1-0.4,0.3-0.9,0.4-1.3c1.5-4.8,2.9-9.6,4.4-14.4c0.1-0.3,0.2-0.4,0.6-0.4
			c2.8,0,5.5,0,8.3,0c1.1,0,2.2,0.3,3.1,1c0,0,0,0,0,0c0,0,0,0,0,0c0,0,0,0,0.1,0.1l0,0c0,0,0.1,0.1,0.1,0.1l0,0
			c0,0,0.1,0.1,0.1,0.1l0,0c0.3,0.4,0.5,0.9,0.8,1.3c0,0.3,0.1,0.6,0.1,0.9c0,1.4-0.3,2.8-1,4.1c-0.7,1.4-1.6,2.6-3,3.4
			c-0.2,0.1-0.3,0.3-0.2,0.5c0,0.1,0.1,0.1,0.1,0.2c0,0.1,0,0.1,0,0.2c0.3,0.9,0.6,1.9,0.9,2.8c0.2,0.5,0.3,1,0.5,1.5
			c-0.2,0-0.4,0-0.5,0c-1.2,0-2.5,0-3.7,0C354.3,409.1,354.2,409.1,354.1,409.1z M356,396.2L356,396.2c-0.2-0.5-0.6-0.6-1.1-0.6
			c-0.9,0-1.8,0-2.6,0c-0.2,0-0.3,0.1-0.4,0.3c-0.5,1.6-0.9,3.1-1.4,4.7c-0.1,0.4-0.1,0.4,0.4,0.4c0.9,0,1.8,0,2.7,0
			c0.4,0,0.8-0.1,1.2-0.4c0.8-0.7,1.3-1.4,1.6-2.4C356.5,397.5,356.6,396.8,356,396.2C356.1,396.2,356.1,396.2,356,396.2z"/>
		<path id="XMLID_123_" class="st2" d="M334.1,405c0.6,0.1,1.3,0.2,2,0.3c1.8,0.1,3.6,0.2,5.4-0.3c0.1,0,0.4-0.2,0.4,0.2
			c-0.1,0.2-0.1,0.3-0.2,0.5c-0.3,1-0.6,1.9-0.9,2.9c-0.1,0.3-0.2,0.4-0.5,0.4c-1.2,0.1-2.4,0.3-3.7,0.4c-1.4,0-2.8,0-4.2-0.1
			c-0.8,0-1.6-0.1-2.3-0.4c-0.1,0-0.2,0-0.3,0l0,0c-0.1-0.1-0.1-0.1-0.2-0.2l0,0c0,0-0.1-0.1-0.1-0.1l0,0c0,0-0.1-0.1-0.1-0.1h0v0
			c0,0,0,0-0.1-0.1c0,0,0,0,0-0.1c0,0,0,0,0,0c0,0,0,0-0.1-0.1l0,0c-0.6-0.8-0.9-1.7-1-2.7c-0.1-1.5,0.3-2.9,0.7-4.2
			c0.4-1.2,0.8-2.4,1.2-3.6c0.1-0.2,0.1-0.3,0.2-0.5c-0.2,0-0.4,0.1-0.6,0.1c-0.6,0.1-1.2,0.2-1.7,0.6c-0.2,0.1-0.4,0.3-0.5,0.4
			c-0.1,0.1-0.3,0.1-0.4,0.1c0-0.1,0-0.3,0.1-0.4c0.3-0.5,0.5-0.9,0.8-1.3c0.7-0.9,1.5-1.9,2.5-2.6c1.5-1,3.1-1.6,4.9-1.6
			c3.1,0,6.3,0,9.4,0c0.1,0,0.2,0,0.4,0c0,0,0.1,0.1,0.1,0.2c-0.1,0.2-0.2,0.4-0.2,0.6c-0.3,0.9-0.5,1.8-0.8,2.7
			c-0.1,0.3-0.2,0.4-0.5,0.4c-0.7,0-1.5,0-2.2,0c-1.4,0-2.7,0-4.1,0c-0.7,0-1.2,0.2-1.5,0.8c-0.3,0.6-0.5,1.1-0.9,1.8
			c0.3,0,0.4-0.1,0.6-0.1c1.7,0,3.5,0,5.2,0c0.1,0,0.3-0.1,0.3,0.2c-0.3,0.8-0.5,1.6-0.8,2.5c-0.2,0.5-0.1,0.5-0.6,0.5
			c-1.8,0-3.6,0-5.3,0c-0.3,0-0.5,0.1-0.5,0.4c-0.1,0.4-0.2,0.9-0.3,1.3C333.5,404.5,333.5,404.6,334.1,405z"/>
		<path id="XMLID_122_" class="st2" d="M271.4,408c-0.5-0.6-0.7-1.4-0.8-2.2c-0.1-1.4,0.2-2.8,0.6-4.1c0.5-2.1,1.3-4.1,2.3-6
			c1-1.9,2.6-3,4.8-3.1c3.1,0,6.1,0,9.2,0c0.1,0,0.4-0.1,0.3,0.2c0,0.1-0.1,0.2-0.1,0.3c-0.3,0.9-0.6,1.9-0.9,2.9
			c-0.2,0.7-0.1,0.6-0.8,0.6c-0.7,0-1.3,0-2,0c-1.5,0-3,0-4.5,0c-0.5,0-1,0.2-1.3,0.7c-0.4,0.8-0.8,1.5-1.1,2.3
			c-0.6,1.4-1,2.9-1.1,4.4c-0.1,0.6,0,0.9,0.6,1.3c0.5,0.1,0.9,0.1,1.4,0.1c0.5,0,1,0,1.4,0c0.3,0,0.5-0.1,0.5-0.4c0.3-1,0.6-2,1-3
			c0.1-0.3,0.2-0.4,0.5-0.4c1.4,0,2.8,0,4.2,0c0.1,0,0.3-0.1,0.3,0.1c0,0.1,0,0.1,0,0.2c-0.1,0.2-0.1,0.3-0.2,0.5
			c-0.6,1.9-1.3,3.9-1.9,5.8c-0.1,0.2-0.1,0.6-0.3,0.7c-0.2,0.1-0.5,0.1-0.8,0.1c-0.1,0-0.1,0-0.2,0c-1.1,0.1-2.1,0.3-3.2,0.3
			c-2.2,0.1-4.4,0-6.6-0.3c-0.4-0.3-0.8-0.5-1.2-0.8l0,0c0,0,0-0.1-0.1-0.1c0,0,0,0,0,0C271.5,408.1,271.5,408.1,271.4,408
			C271.5,408.1,271.5,408,271.4,408L271.4,408z"/>
		<path id="XMLID_121_" class="st2" d="M360.7,409.1c-0.3,0-0.2-0.1-0.2-0.3c0.2-0.9,0.4-1.8,0.7-2.7c0.1-0.3,0.1-0.7,0.3-0.9
			c0.2-0.1,0.6-0.1,0.9-0.1c2.2,0,4.3,0,6.5,0c0.4,0,0.9-0.1,1.3-0.3c0.6-0.2,0.9-0.8,0.8-1.4c-0.2-0.4-0.5-0.6-0.9-0.6
			c-0.7,0-1.3,0-2,0c-1.3,0-2.5-0.2-3.7-0.8l0,0l0,0c-0.4-0.6-0.7-1.3-0.8-2c-0.1-0.7-0.3-1.4-0.1-2.1c0-0.1,0-0.1,0-0.2
			c0-0.1,0.1-0.2,0.1-0.4c0,0,0-0.1,0-0.1c0,0,0,0-0.1,0.1c-0.7,0.2-1.4,0.6-1.8,1.3c-0.1,0-0.2,0-0.3,0c0-0.2,0-0.3,0.1-0.5
			c0-0.2,0.1-0.3,0.2-0.5c0.1-0.2,0.2-0.3,0.3-0.5c0.6-0.9,1.1-1.8,1.9-2.5c1.3-1.2,2.8-1.8,4.5-1.9c2.8-0.1,5.7-0.1,8.5-0.1
			c0.3,0,0.6,0,1,0c0.1,0,0.1,0.1,0.2,0.2c0,0.1-0.1,0.1-0.1,0.2c-0.3,1.1-0.5,2.2-0.8,3.2c-0.1,0.3-0.2,0.4-0.4,0.3
			c-0.3,0-0.6,0-1,0c-1.9,0-3.9,0-5.8,0c-0.6,0-1.1,0.1-1.6,0.4c-0.8,0.5-0.9,1.5-0.2,2c0,0,0,0,0,0l0,0c0.3,0.1,0.7,0.2,1,0.2
			c1.1,0.1,2.3,0.1,3.4,0.1c0.7,0,1.4,0.3,2,0.8c0,0,0,0,0,0c0,0,0.1,0.1,0.1,0.1l0,0c0,0,0,0,0.1,0.1c0.5,0.7,0.7,1.5,0.6,2.4
			c-0.2,1.1-0.6,2.2-1.1,3.2c-0.8,1.6-2,2.5-3.8,2.8c-1,0.1-1.9,0.2-2.9,0.3C365.3,409.1,363,409.1,360.7,409.1z"/>
		<path id="XMLID_118_" class="st2" d="M299.2,409.1c-0.3,0-0.2-0.2-0.2-0.4c0-0.9,0-1.8,0-2.7c0.1-0.3,0-0.4-0.3-0.4
			c-1.4,0-2.9,0-4.3,0c-0.4,0-0.5,0.1-0.7,0.4c-0.5,0.9-1,1.7-1.5,2.6c-0.2,0.3-0.4,0.5-0.8,0.5c-1.4,0-2.9,0-4.3,0
			c-0.4,0-0.3-0.2-0.1-0.4c0.6-1,1.3-2.1,1.9-3.1c2-3.3,3.9-6.5,5.9-9.8c0.7-1.1,1.5-2,2.5-2.7c0.5-0.3,1-0.4,1.5-0.4
			c1.5,0,3,0,4.5,0c0.1,0,0.3,0,0.3,0.2c0,0.3,0,0.5,0,0.8c0,5,0,10,0,15c0,0.5,0,0.5-0.5,0.5C301.8,409.1,300.5,409.1,299.2,409.1z
			 M299,397.4c0-0.3,0-0.6,0-1c-0.1,0.1-0.2,0.2-0.2,0.3c-0.8,1.4-1.6,2.8-2.3,4.1c-0.3,0.5-0.5,0.9-0.8,1.4
			c-0.1,0.3-0.1,0.3,0.2,0.3c0.1,0,0.1,0,0.2,0c0.9,0,1.7,0,2.6,0c0.3,0,0.4-0.1,0.4-0.3C299,400.7,299,399.1,299,397.4z"/>
		<path id="XMLID_117_" class="st2" d="M368.2,431.9c-0.3,0-0.3-0.1-0.2-0.3c0.3-1,0.6-1.9,0.9-2.9c1.3-4.2,2.6-8.4,3.9-12.7
			c0.2-0.5,0.2-0.5,0.7-0.5c1.3,0,2.7,0,4,0c0.1,0,0.4-0.1,0.4,0.2c-0.8,2.5-1.6,5-2.3,7.6c-0.9,2.8-1.7,5.5-2.5,8.3
			c-0.1,0.3-0.2,0.4-0.5,0.4C371.1,431.9,369.7,431.9,368.2,431.9z"/>
		<path id="XMLID_116_" class="st3" d="M276.8,381.1c0.1,0,0.1,0,0.2,0c0.2,0.1,0.4,0.1,0.5-0.1c0.1,0,0.3,0,0.5,0
			c0.2,0,0.4,0.1,0.5-0.1c0.3,0,0.5,0,0.8,0c0.2,0,0.5,0.1,0.6-0.1c1.1,0,2.1,0,3.2,0c0.2,0,0.4,0,0.6,0c0.1,0,0.2,0.1,0.3,0.1
			c-0.1,0.1-0.2,0.2-0.3,0.3c-0.1,0-0.3,0-0.5,0c-1.1,0-2.2,0-3.2,0c-3,0-5.8,0.7-8.6,1.7c-3.1,1.1-6,2.8-8.6,4.9
			c-2.3,1.9-4.3,4-6,6.5c-2,3.2-3.4,6.6-4.2,10.4c-0.5,2.3-0.6,4.6-0.4,6.9c0.1,2.6,0.7,5.1,1.5,7.6c1,3.1,2.6,6,4.6,8.6
			c0.3,0.3,0.5,0.7,0.8,1c0.1,0.1,0.1,0.2,0.2,0.4c-0.4-0.5-0.9-1-1.3-1.5c-1.2-1.5-2.2-3.2-3.1-4.9c-1.1-2-1.7-4.1-2.3-6.3
			c-0.4-1.4-0.6-2.9-0.7-4.4c-0.1-1.3-0.1-2.5-0.1-3.8c0.2-0.1,0.2-0.3,0.1-0.4c0-0.3,0-0.5,0-0.8c0.3-0.1,0.2-0.3,0.1-0.5
			c0-0.1,0-0.3,0-0.4c0.2-0.1,0.2-0.3,0.1-0.4c0-0.1,0-0.2,0-0.3c0.1-0.1,0.1-0.2,0.2-0.3c0-0.1,0-0.1,0-0.2c0-0.1,0.1-0.2,0.1-0.3
			c0-0.1,0-0.1,0-0.2c0-0.1,0.1-0.2,0.1-0.3c0-0.1,0-0.1,0-0.2c0,0,0.1,0,0.1-0.1c0.3-1.4,0.8-2.7,1.3-4.1c0.7-1.9,1.6-3.7,2.7-5.4
			c0.8-1.2,1.6-2.4,2.6-3.4c1-1,2-2.1,3.1-3.1c1.1-1,2.4-1.8,3.6-2.6c1.8-1.1,3.6-2.1,5.6-2.7c1.2-0.4,2.5-0.7,3.8-1.1
			c0.1,0,0.2-0.1,0.3-0.2c0.1,0,0.1,0,0.2,0c0.2,0.1,0.3,0.1,0.4-0.1c0.1,0,0.1,0,0.2,0C276.5,381.3,276.7,381.4,276.8,381.1z"/>
		<path id="XMLID_115_" class="st4" d="M264.4,441.4c0.1,0,0.2,0.1,0.2,0.1c0.1,0.1,0.1,0.1,0.2,0.2c2,0.8,4,1.4,6.1,1.7
			c1.3,0.2,2.6,0.4,3.9,0.5c2.5,0.1,5.1,0,7.6-0.6c3.6-0.8,7.1-1.8,10.2-3.8c2-1.2,4-2.6,5.7-4.2c1.3-1.2,2.5-2.4,3.5-3.9
			c0.9-1.2,1.6-2.4,2.4-3.6c0.1-0.1,0.1-0.3,0.2-0.5c0,0-0.1,0-0.1,0c-0.1,0.1-0.3,0.2-0.4,0.3c0.1-0.3,0.3-0.6,0.4-0.9v0
			c0-0.1,0.1-0.2,0.1-0.3c0-0.1,0.1-0.2,0.1-0.2c0.2,0,0.4,0,0.6,0c0,0.1,0,0.2,0,0.2c-0.2,0.5-0.4,1-0.7,1.4c-1,1.8-2.2,3.5-3.6,5
			c-0.9,1-1.9,2.1-2.9,3c-1.7,1.5-3.5,2.8-5.5,4c-0.9,0.5-1.9,1.1-2.9,1.5c-1.3,0.5-2.7,1-4.1,1.4c-1.4,0.4-2.9,0.7-4.4,1
			c-0.7,0.1-1.5,0.2-2.2,0.2c-1.1,0.1-2.2,0.1-3.2,0.1c-1.5,0-3-0.2-4.5-0.4c-1.9-0.3-3.8-0.8-5.6-1.5c-2.1-0.7-4-1.7-5.9-2.8
			c-1.2-0.8-2.5-1.6-3.6-2.5c-1.2-1-2.2-2.1-3.3-3.2c-0.1-0.1-0.1-0.2-0.1-0.4c0.8,0.8,1.6,1.6,2.4,2.3c1.5,1.4,3.1,2.6,4.9,3.7
			c1.1,0.6,2.3,1.2,3.5,1.8c0.1,0,0.2,0.1,0.3,0.1c0.2,0.1,0.3,0.1,0.4,0.2C264.2,441.4,264.3,441.4,264.4,441.4z"/>
		<path id="XMLID_114_" class="st5" d="M328.5,431.9c1.4,0,2.7,0,4,0c0.5,0,0.5,0,0.7-0.5c0.7-2.1,1.3-4.3,2-6.4
			c0.1-0.2,0.2-0.3,0.3-0.4c2.3-2.2,4.6-4.4,6.9-6.6c0.8-0.8,1.7-1.5,2.5-2.3c0.1,0,0.3,0.1,0.4,0.1c-0.1,0.1-0.1,0.2-0.2,0.3
			c-2.1,2-4.2,4.1-6.3,6.1c-0.9,0.9-1.9,1.8-2.8,2.7c-0.2,0.2-0.3,0.4-0.4,0.7c-0.7,2-1.3,4.1-1.9,6.1c-0.2,0.5-0.2,0.5-0.7,0.5
			c-1.3,0-2.6,0-3.9,0C328.8,432.2,328.5,432.3,328.5,431.9z"/>
		<path id="XMLID_113_" class="st5" d="M412.8,431.9c1.4,0,2.9,0,4.3,0c0.3,0,0.4-0.1,0.5-0.4c1.2-3.9,2.4-7.8,3.5-11.7
			c0.1-0.5,0.1-0.5,0.6-0.5c1,0,2.1,0,3.1,0c0.7,0,0.5,0.1,0.7-0.5c0.3-0.8,0.5-1.7,0.8-2.5c0.1-0.2,0.2-0.4,0.2-0.6
			c0.4,0.1,0.4,0.1,0.3,0.5c-0.1,0.5-0.3,0.9-0.4,1.3c-0.2,0.6-0.4,1.2-0.5,1.8c-0.1,0.3-0.3,0.5-0.6,0.5c-1.1,0-2.1,0-3.2,0
			c-0.5,0-0.5,0-0.7,0.5c-1.1,3.5-2.1,7-3.2,10.6c-0.1,0.4-0.2,0.7-0.3,1.1c-0.1,0.2-0.2,0.4-0.5,0.4c-1.5,0-2.9,0-4.4,0
			C412.9,432.2,412.8,432.2,412.8,431.9z"/>
		<path id="XMLID_112_" class="st5" d="M328,396.8c-0.3,0.4-0.5,0.9-0.8,1.3c-0.1,0.1-0.1,0.2-0.1,0.4c0.1,0,0.3,0,0.4-0.1
			c0.2-0.1,0.4-0.3,0.5-0.4c0.5-0.4,1.1-0.5,1.7-0.6c0.2,0,0.4-0.1,0.6-0.1c-0.1,0.2-0.1,0.4-0.2,0.5c-0.8,0.1-1.6,0.4-2.3,1.1
			c0,0-0.1,0.1-0.2,0.1c-0.5,0-0.5,0.4-0.6,0.7c-0.9,3.1-1.9,6.2-2.8,9.3c-0.2,0.6-0.2,0.6-0.8,0.6c-1.3,0-2.6,0-3.9,0
			c-0.2,0-0.5,0-0.4-0.3c1.4,0,2.8,0,4.2,0c0.4,0,0.5-0.1,0.6-0.4c1-3.3,2-6.6,3-9.8c0.6-2,1.2-4,1.8-5.9c0.4,0,0.4,0.2,0.3,0.5
			c-0.3,0.9-0.6,1.9-0.8,2.8C328.1,396.4,328.1,396.6,328,396.8z"/>
		<path id="XMLID_111_" class="st5" d="M401.7,431.9c1.4,0,2.8,0,4.2,0c0.4,0,0.5-0.1,0.6-0.4c0.7-2.4,1.5-4.9,2.2-7.3
			c0.3-0.8,0.5-1.6,0.8-2.5c0-0.2,0.1-0.3,0.3-0.3c0.1,0,0.3-0.2,0.4-0.3c0.8-1,1.9-1.5,3.1-1.6c0.9-0.1,1.8-0.1,2.7-0.1
			c0.3,0,0.3,0.1,0.2,0.4c-1.2,0-2.3,0.1-3.4,0.3c-0.8,0.2-1.4,0.5-2,1.1c-0.2,0.3-0.5,0.4-0.8,0.7c-0.1,0.1-0.2,0.3-0.2,0.4
			c-0.7,2.3-1.4,4.5-2.1,6.8c-0.3,0.9-0.6,1.9-0.9,2.8c-0.1,0.3-0.3,0.4-0.6,0.4c-1.4,0-2.8,0-4.1,0
			C401.9,432.2,401.6,432.3,401.7,431.9z"/>
		<path id="XMLID_110_" class="st5" d="M358.7,431.9c1.8,0,3.5,0,5.3,0c0.5,0,0.5,0,0.6-0.5c1.5-5.1,3.1-10.2,4.6-15.2
			c0-0.2,0.1-0.3,0.2-0.5c0.3,0,0.4,0.1,0.3,0.4c-0.4,1.2-0.8,2.5-1.1,3.7c-1.1,3.8-2.3,7.6-3.5,11.4c-0.3,1.1-0.2,0.9-1.3,0.9
			c-1.5,0-3,0-4.5,0C358.9,432.2,358.7,432.3,358.7,431.9z"/>
		<path id="XMLID_109_" class="st5" d="M368.2,431.9c1.4,0,2.9,0,4.4,0c0.3,0,0.4-0.1,0.5-0.4c0.8-2.8,1.7-5.5,2.5-8.3
			c0.8-2.5,1.5-5,2.3-7.6c0.4,0.1,0.4,0.2,0.3,0.6c-0.5,1.8-1.1,3.5-1.6,5.3c-1,3.4-2.1,6.8-3.1,10.2c-0.1,0.5-0.2,0.5-0.7,0.5
			c-1.4,0-2.7,0-4.1,0C368.4,432.2,368.2,432.3,368.2,431.9z"/>
		<path id="XMLID_108_" class="st6" d="M276.6,405.2c-0.5-0.4-0.7-0.7-0.6-1.3c0.2-1.5,0.6-3,1.1-4.4c0.3-0.8,0.7-1.6,1.1-2.3
			c0.3-0.5,0.7-0.7,1.3-0.7c1.5,0,3,0,4.5,0c0.7,0,1.3,0,2,0c0.6,0,0.6,0.1,0.8-0.6c0.3-1,0.6-1.9,0.9-2.9c0-0.1,0.1-0.2,0.1-0.3
			c0.3,0,0.4,0.1,0.3,0.4c-0.3,1.1-0.7,2.2-1,3.3c-0.1,0.3-0.3,0.3-0.6,0.3c-2,0-4.1,0-6.1,0c-0.2,0-0.4,0-0.6,0
			c-0.5,0-0.8,0.2-1.1,0.7c-1.1,1.9-1.8,3.9-2.1,6.1C276.4,404.2,276.3,404.7,276.6,405.2z"/>
		<path id="XMLID_107_" class="st5" d="M382.9,428c-0.4-0.2-0.6-0.5-0.5-1c0.1-0.7,0.2-1.5,0.4-2.2c0.4-1.6,1-3.2,1.8-4.6
			c0.3-0.5,0.7-0.8,1.4-0.8c2.2,0,4.4,0,6.6,0c0.6,0,0.5,0,0.7-0.5c0.3-1.1,0.7-2.1,1-3.2c0.3,0,0.4,0.2,0.3,0.4
			c-0.3,1.1-0.7,2.3-1,3.4c-0.1,0.2-0.2,0.3-0.4,0.3c-0.1,0-0.3,0-0.4,0c-2.1,0-4.2,0-6.3,0c-0.7,0-1.1,0.3-1.5,0.9
			c-1.1,2-1.8,4.1-2.1,6.4C382.7,427.3,382.8,427.7,382.9,428z"/>
		<path id="XMLID_106_" class="st6" d="M360.7,409.1c2.3,0,4.5,0,6.8,0c1,0,2-0.1,2.9-0.3c1.7-0.3,3-1.3,3.8-2.8
			c0.5-1,0.9-2.1,1.1-3.2c0.1-0.9,0-1.7-0.6-2.4c0.7,0.3,0.9,1,0.9,1.6c0,0.6,0,1.2-0.1,1.8c-0.2,1.1-0.7,2-1.2,2.9
			c-1,1.6-2.4,2.4-4.3,2.6c-3,0.3-5.9,0.1-8.9,0.1C360.9,409.4,360.6,409.5,360.7,409.1z"/>
		<path id="XMLID_105_" class="st5" d="M310.1,431.9c1.6,0,3.2,0,4.8,0c1.4,0,2.9,0,4.3,0c0.9,0,1.8-0.1,2.6-0.3
			c1.9-0.5,3.1-1.8,3.8-3.6c0.1-0.3,0.2-0.7,0.3-1.1c0.2-0.9,0.1-1.6-0.4-2.4c0.6,0.4,0.8,1,0.9,1.7c0.1,1.3-0.4,2.5-1.1,3.5
			c-1,1.4-2.4,2.2-4.1,2.4c-0.6,0.1-1.3,0.1-1.9,0.1c-2.8,0-5.6,0-8.4,0c-0.1,0-0.3,0-0.4,0C310.2,432.2,310.1,432.1,310.1,431.9z"
			/>
		<path id="XMLID_104_" class="st5" d="M299.2,409.1c1.3,0,2.6,0,3.9,0c0.5,0,0.5,0,0.5-0.5c0-5,0-10,0-15c0-0.3,0-0.5,0-0.8
			c0.3,0,0.4,0.1,0.4,0.4c0,0.1,0,0.2,0,0.4c0,5,0,10,0,15.1c0,0.1,0,0.2,0,0.4c0,0.3-0.1,0.4-0.4,0.4c-1.3,0-2.6,0-3.9,0
			C299.3,409.4,299.2,409.3,299.2,409.1z"/>
		<path id="XMLID_103_" class="st5" d="M393.1,431.9c1.4,0,2.8,0,4.3,0c0.4,0,0.5-0.1,0.6-0.4c0.7-2.4,1.5-4.8,2.2-7.2
			c0.2-0.5,0.2-0.5,0.8-0.5c0.9,0,1.8,0,2.6,0c0.4,0,0.4,0,0.3,0.4c-0.9,0-1.8,0-2.6,0c-0.5,0-0.5,0-0.6,0.4c-0.7,2.3-1.4,4.7-2.1,7
			c0,0.1-0.1,0.2-0.1,0.3c-0.1,0.2-0.2,0.4-0.5,0.4c-1.4,0-2.9,0-4.3,0C393.2,432.2,393.1,432.2,393.1,431.9z"/>
		<path id="XMLID_102_" class="st5" d="M305.2,409.1c1.4,0,2.8,0,4.1,0c0.3,0,0.5-0.1,0.6-0.4c1.1-3.5,2.1-7,3.2-10.5
			c0-0.1,0.1-0.2,0.2-0.3c0,0.3,0.1,0.6,0.2,0.9c-0.3,0.9-0.6,1.8-0.9,2.8c-0.8,2.5-1.5,4.9-2.2,7.4c-0.2,0.5-0.2,0.5-0.7,0.5
			c-1.3,0-2.7,0-4,0C305.4,409.4,305.2,409.5,305.2,409.1z"/>
		<path id="XMLID_101_" class="st5" d="M348.1,431.9c1.4,0,2.8,0,4.1,0c0.5,0,0.4,0.1,0.6-0.5c1-3.5,2.1-6.9,3.1-10.4
			c0-0.1,0.1-0.3,0.2-0.4c0.1,0.3,0.1,0.6,0.1,0.9c-0.2,0.5-0.3,0.9-0.5,1.4c-0.9,2.9-1.8,5.9-2.7,8.8c-0.1,0.4-0.2,0.5-0.6,0.5
			c-1.4,0-2.7,0-4,0C348.3,432.2,348.1,432.3,348.1,431.9z"/>
		<path id="XMLID_100_" class="st6" d="M335.7,399c-0.2,0-0.4,0-0.6,0.1c0.3-0.6,0.6-1.2,0.9-1.8c0.3-0.6,0.8-0.8,1.5-0.8
			c1.4,0,2.7,0,4.1,0c0.7,0,1.5,0,2.2,0c0.3,0,0.5-0.1,0.5-0.4c0.3-0.9,0.5-1.8,0.8-2.7c0.1-0.2,0.2-0.4,0.2-0.6
			c0.4,0.1,0.4,0.1,0.3,0.4c-0.3,1.1-0.7,2.2-1,3.2c-0.1,0.3-0.3,0.4-0.6,0.4c-2.1,0-4.1,0-6.1,0c-0.9,0-1.4,0.4-1.7,1.1
			C336,398.4,335.8,398.7,335.7,399z"/>
		<path id="XMLID_99_" class="st6" d="M329.9,408.9c0.1,0,0.2,0,0.3,0c0.7,0.3,1.5,0.4,2.3,0.4c1.4,0,2.8,0.1,4.2,0.1
			c1.2,0,2.4-0.3,3.6-0.4c0.3,0,0.4-0.1,0.5-0.4c0.3-1,0.6-1.9,0.9-2.9c0.1-0.2,0.1-0.3,0.2-0.5c0.4,0.1,0.4,0.1,0.3,0.5
			c-0.2,0.6-0.4,1.2-0.5,1.9c-0.1,0.5-0.3,0.9-0.4,1.4c-0.1,0.3-0.2,0.4-0.5,0.5c-2.8,0.4-5.5,0.5-8.3,0.2c-0.7-0.1-1.4-0.1-2-0.4
			C330.2,409.1,330.1,409,329.9,408.9z"/>
		<path id="XMLID_98_" class="st6" d="M368,399c-0.8-0.5-0.7-1.5,0.2-2c0.5-0.3,1.1-0.4,1.6-0.4c1.9,0,3.9,0,5.8,0c0.3,0,0.6,0,1,0
			c0.3,0,0.4-0.1,0.4-0.3c0.2-1.1,0.5-2.2,0.8-3.2c0-0.1,0-0.1,0.1-0.2c0.3,0,0.4,0.1,0.3,0.4c-0.3,1.1-0.6,2.2-0.8,3.3
			c-0.1,0.3-0.3,0.4-0.6,0.4c-2.1,0-4.1,0-6.1,0c-0.5,0-1.1,0.1-1.6,0.2c-0.5,0.1-1,0.4-1.1,1C367.9,398.4,368,398.7,368,399z"/>
		<path id="XMLID_97_" class="st5" d="M287,409.1c1.4,0,2.9,0,4.3,0c0.4,0,0.6-0.1,0.8-0.5c0.5-0.9,1-1.7,1.5-2.6
			c0.2-0.3,0.4-0.4,0.7-0.4c1.4,0,2.9,0,4.3,0c0.3,0,0.4,0.1,0.3,0.4c-1.4,0-2.8,0-4.2,0c-0.4,0-0.6,0.1-0.8,0.4
			c-0.5,0.9-1,1.7-1.4,2.6c-0.2,0.4-0.4,0.5-0.9,0.5c-1.4,0-2.8,0-4.2,0C287.2,409.4,286.9,409.5,287,409.1z"/>
		<path id="XMLID_96_" class="st6" d="M343.5,409.1c1.4,0,2.7,0,4,0c0.5,0,0.5,0,0.6-0.5c0.4-1.3,0.8-2.5,1.1-3.8
			c0.1-0.3,0.2-0.4,0.5-0.4c0.8,0,1.6,0,2.4,0c0.3,0,0.4,0.1,0.4,0.4c-0.8,0-1.5,0-2.3,0c-0.5,0-0.5,0-0.6,0.5
			c-0.4,1.2-0.7,2.4-1.1,3.6c-0.2,0.5-0.2,0.5-0.7,0.5c-1.3,0-2.6,0-3.9,0C343.7,409.4,343.4,409.5,343.5,409.1z"/>
		<path id="XMLID_95_" class="st3" d="M361.2,398.6c0.1,0,0.2,0,0.3,0c0.2,0.3,0.3,0,0.4-0.1c0.4-0.4,0.8-0.7,1.3-0.8
			c0,0.1,0,0.1,0,0.2c-0.4,0.3-0.8,0.6-1.2,0.8c-0.1,0.1-0.1,0.2-0.2,0.2c-0.5,0-0.5,0.4-0.7,0.7c-0.6,1.8-1.7,3.4-3.3,4.5
			c-0.3,0.2-0.3,0.3-0.2,0.6c0.4,1.3,0.8,2.6,1.3,3.9c0,0.1,0.1,0.3,0.1,0.4c0.1,0.3,0,0.4-0.3,0.4c-0.1,0-0.3,0-0.4,0
			c-1.2,0-2.4,0-3.6,0c-0.3,0-0.5,0-0.5-0.4c0.1,0,0.2,0,0.3,0c0.1,0,0.3,0.1,0.5,0.1c1,0,1.9,0,2.9,0c0.3,0,0.5,0,0.8,0
			c0,0,0-0.1,0.1-0.1c-0.1-0.5-0.3-1-0.5-1.5c-0.3-0.9-0.6-1.9-0.9-2.8c0-0.1,0-0.1,0-0.2c0-0.3,0.1-0.4,0.3-0.5
			c1.1-0.7,2-1.7,2.6-2.8C360.7,400.4,361,399.5,361.2,398.6z"/>
		<path id="XMLID_94_" class="st3" d="M395.2,424.2c0,0.1,0,0.1,0,0.2c-0.7,0.1-1.4,0.4-2,0.8c-0.4,0.3-0.7,0.6-0.9,1
			c-0.6,1.8-1.2,3.7-1.8,5.5c-0.1,0.4-0.2,0.5-0.7,0.5c-1.1,0.1-2.1,0.3-3.2,0.3c-1.6,0-3.2,0-4.8,0c-0.5,0-1-0.1-1.5-0.1
			c-0.5-0.1-1-0.2-1.5-0.5c-0.1-0.1-0.2-0.2-0.3-0.4c0.3,0.1,0.7,0.3,1,0.4c0.2,0.1,0.3,0.2,0.5,0.2c1.2,0.1,2.4,0.3,3.6,0.3
			c1,0,2.1-0.1,3.1-0.1c0.1,0,0.1,0,0.2,0c0.9-0.1,1.8-0.2,2.7-0.3c0.6,0,0.6,0,0.8-0.6c0.6-1.8,1.2-3.6,1.7-5.4
			c0.1-0.3,0.3-0.6,0.5-0.8C393.3,424.7,394.2,424.3,395.2,424.2z"/>
		<path id="XMLID_93_" class="st5" d="M315,405.5c0.8,0.1,1.2-0.3,1.6-0.8c1.7-2.1,3.5-4.2,5.2-6.3c0.1-0.1,0.2-0.2,0.4-0.2
			c-0.1,0.4-0.3,0.8-0.4,1.2c-0.2,0-0.3,0.1-0.2,0.3l0,0c-0.2-0.2-0.3,0.1-0.4,0.2c-0.6,0.7-1.2,1.4-1.8,2.1c-1,1.2-2,2.5-3.1,3.7
			c-0.2,0.2-1.1,0.3-1.4,0.1C315,405.7,315,405.6,315,405.5z"/>
		<path id="XMLID_92_" class="st3" d="M285.9,402c0-0.1,0-0.1,0-0.2c0.4,0.1,0.5,0.1,0.3,0.6c-0.7,2-1.3,4-1.9,6
			c-0.1,0.3-0.2,0.5-0.2,0.8c-0.1,0.3-0.2,0.4-0.5,0.4c-1.2,0.1-2.4,0.3-3.6,0.3c-1.4,0.1-2.9,0-4.3,0c-0.6,0-1.2-0.1-1.7-0.1
			c-0.8-0.1-1.5-0.4-2.1-0.9c-0.1-0.1-0.2-0.3-0.3-0.4c0.4,0.3,0.8,0.5,1.2,0.8c0.3,0.1,0.5,0.3,0.8,0.3c0.9,0.1,1.9,0.2,2.8,0.2
			c1.1,0,2.2,0,3.4,0c0.1,0,0.3,0,0.5,0c1-0.1,2-0.2,3-0.3c0.5,0,0.5,0,0.7-0.5c0.4-1.2,0.8-2.4,1.2-3.6c0.3-0.9,0.6-1.9,0.9-2.8
			C286.1,402.2,286.2,402,285.9,402z"/>
		<path id="XMLID_91_" class="st6" d="M334.1,405c-0.5-0.4-0.6-0.5-0.5-1.1c0.1-0.4,0.2-0.9,0.3-1.3c0.1-0.3,0.2-0.4,0.5-0.4
			c1.8,0,3.6,0,5.3,0c0.5,0,0.5,0,0.6-0.5c0.3-0.8,0.5-1.6,0.8-2.5c0.3,0,0.4,0.1,0.3,0.4c-0.3,0.9-0.5,1.7-0.8,2.6
			c-0.1,0.3-0.3,0.3-0.5,0.3c-1,0-2,0-2.9,0c-0.8,0-1.6,0-2.4,0c-0.3,0-0.5,0.1-0.6,0.4c-0.1,0.4-0.2,0.8-0.3,1.3
			C334,404.5,334.1,404.7,334.1,405z"/>
		<path id="XMLID_90_" class="st3" d="M361.9,424.2c0,0.1-0.1,0.3-0.1,0.4c0,0.1-0.1,0.2-0.2,0.4c-0.1-0.5-0.2-1-0.3-1.5
			c-0.4-2-0.7-3.9-1.1-5.9c-0.1-0.4-0.3-0.8-0.5-1.2c0.6,0.3,0.8,0.8,0.9,1.4c0.4,2,0.8,4.1,1.2,6.1
			C361.8,423.9,361.9,424,361.9,424.2z"/>
		<path id="XMLID_89_" class="st5" d="M325.1,424.1c-0.2-0.1-0.4-0.2-0.7-0.3c2-0.9,3.3-2.3,4-4.4c0.1,0.4,0.2,0.6,0.3,0.9
			c-0.1,0.1-0.2,0.3-0.3,0.4c-0.6,1.4-1.6,2.4-2.9,3.1C325.3,423.8,325.2,424,325.1,424.1z"/>
		<path id="XMLID_88_" class="st3" d="M364.3,402.1c1.1,0.6,2.4,0.8,3.7,0.8c0.7,0,1.3,0,2,0c0.4,0,0.7,0.2,0.9,0.6
			c-0.3,0-0.6-0.1-0.9-0.1c-1.2,0-2.4,0.1-3.6-0.2c-0.5-0.1-1.1-0.3-1.6-0.5C364.6,402.5,364.4,402.3,364.3,402.1z"/>
		<path id="XMLID_87_" class="st6" d="M401.9,420.2c-0.5,0-0.5,0-0.4-0.4c0.4-1.4,0.8-2.7,1.3-4.1c0.4,0.1,0.4,0.1,0.3,0.5
			c-0.3,1-0.6,2-0.9,2.9C402.1,419.5,402,419.9,401.9,420.2z"/>
		<path id="XMLID_86_" class="st5" d="M409.9,420.5c0.2-0.7,0.4-1.4,0.6-2c0.3-0.9,0.6-1.9,0.9-2.8c0.4,0.1,0.4,0.1,0.3,0.5
			c-0.2,0.7-0.4,1.4-0.6,2c-0.1,0.2-0.1,0.5-0.1,0.7c-0.3,0.5-0.5,0.9-0.8,1.4C410.1,420.3,410,420.4,409.9,420.5L409.9,420.5z"/>
		<path id="XMLID_85_" class="st3" d="M333.9,421.6c-0.3,0.2-0.3,0.2-0.4-0.1c-0.5-1.5-1-3.1-1.5-4.6c-0.1-0.4-0.3-0.8-0.4-1.2
			c0.3,0,0.4,0.3,0.5,0.5c0.5,1.6,1.1,3.2,1.6,4.8C333.7,421.1,333.8,421.3,333.9,421.6z"/>
		<path id="XMLID_84_" class="st3" d="M318.3,397.8c0,0.1-0.1,0.1-0.1,0.2c-0.1,0-0.1,0.1-0.2,0.1c0-0.1-0.1-0.1-0.1-0.2
			c-0.2-1-0.4-2-0.6-3.1c-0.1-0.4-0.3-0.8-0.4-1.2c0.5,0.2,0.7,0.7,0.8,1.1C317.9,395.7,318.1,396.8,318.3,397.8z"/>
		<path id="XMLID_83_" class="st6" d="M311.1,420.6c0.7-0.8,1.5-1.3,2.4-1.5c0.1,0,0.1,0,0.3-0.1c-0.1,0.2-0.1,0.4-0.2,0.5
			c-0.8,0.3-1.4,0.7-2,1.3c-0.1,0.1-0.3,0.1-0.4,0.1C311.2,420.9,311.2,420.7,311.1,420.6z"/>
		<path id="XMLID_82_" class="st3" d="M361.8,397.1c-0.1,0.2-0.2,0.3-0.3,0.5c0-0.4,0-0.8,0-1.2c0-0.4,0-0.7-0.3-1
			c-0.3-0.4-0.5-0.9-0.8-1.3c0.6,0.3,0.9,0.9,1.1,1.5c0.1,0.4,0.1,0.7,0.2,1.1C361.7,396.8,361.7,397,361.8,397.1z"/>
		<path id="XMLID_81_" class="st3" d="M260.6,430.5c-0.4-0.4-0.8-0.9-1.2-1.3C259.8,429.6,260.3,430,260.6,430.5z"/>
		<path id="XMLID_80_" class="st3" d="M261.6,431.4c-0.3-0.2-0.5-0.5-0.8-0.7C261.1,430.9,261.4,431.2,261.6,431.4z"/>
		<path id="XMLID_79_" class="st4" d="M252,432.6c0.2,0.2,0.4,0.5,0.6,0.7C252.3,433.2,252.1,433,252,432.6z"/>
		<path id="XMLID_78_" class="st4" d="M251.7,432.2c0.1,0.1,0.1,0.2,0.2,0.3C251.8,432.5,251.7,432.4,251.7,432.2z"/>
		<path id="XMLID_77_" class="st4" d="M251.3,431.7c0.1,0.1,0.1,0.2,0.2,0.3C251.3,432,251.3,431.9,251.3,431.7z"/>
		<path id="XMLID_76_" class="st4" d="M250.9,431.2c0.1,0.1,0.1,0.2,0.2,0.3C250.9,431.5,250.9,431.3,250.9,431.2z"/>
		<path id="XMLID_75_" class="st6" d="M329.7,408.7c0.1,0.1,0.1,0.1,0.2,0.2C329.9,408.8,329.8,408.7,329.7,408.7z"/>
		<path id="XMLID_74_" class="st3" d="M262.3,432c-0.1-0.1-0.1-0.1-0.2-0.2C262.2,431.9,262.3,431.9,262.3,432z"/>
		<path id="XMLID_73_" class="st4" d="M250.5,430.5c0.1,0.1,0.1,0.2,0.2,0.2C250.6,430.7,250.5,430.6,250.5,430.5z"/>
		<path id="XMLID_72_" class="st4" d="M250.8,431c0.1,0.1,0.1,0.1,0.2,0.2C250.9,431.1,250.8,431,250.8,431z"/>
		<path id="XMLID_71_" class="st1" d="M304.4,426.4c0,0.1-0.1,0.2-0.1,0.3C304.4,426.6,304.4,426.5,304.4,426.4z"/>
		<path id="XMLID_70_" class="st3" d="M359.7,416.3c0,0-0.1-0.1-0.1-0.1C359.6,416.2,359.7,416.3,359.7,416.3z"/>
		<path id="XMLID_69_" class="st6" d="M374.5,400.2C374.5,400.2,374.5,400.1,374.5,400.2C374.5,400.1,374.5,400.2,374.5,400.2z"/>
		<path id="XMLID_68_" class="st6" d="M329.6,408.5C329.6,408.5,329.6,408.6,329.6,408.5C329.6,408.6,329.6,408.5,329.6,408.5z"/>
		<path id="XMLID_67_" class="st6" d="M329.6,408.6c0,0,0.1,0.1,0.1,0.1C329.7,408.7,329.7,408.6,329.6,408.6z"/>
		<path id="XMLID_65_" class="st3" d="M271.6,408.2C271.6,408.2,271.6,408.3,271.6,408.2C271.6,408.3,271.6,408.2,271.6,408.2z"/>
		<path id="XMLID_63_" class="st5" d="M325.4,424.4L325.4,424.4L325.4,424.4z"/>
		<path id="XMLID_62_" class="st5" d="M325.5,424.5C325.5,424.5,325.5,424.4,325.5,424.5C325.5,424.4,325.5,424.5,325.5,424.5z"/>
		<polygon id="XMLID_60_" class="st3" points="364.2,402 364.3,402 364.2,402 		"/>
		<path id="XMLID_59_" class="st3" d="M360.4,394.1c0,0-0.1-0.1-0.1-0.1C360.3,394,360.3,394,360.4,394.1z"/>
		<path id="XMLID_58_" class="st3" d="M360.2,394c0,0-0.1,0-0.1-0.1C360.2,393.9,360.2,394,360.2,394z"/>
		<path id="XMLID_57_" class="st3" d="M360.1,393.9C360.1,393.9,360.1,393.8,360.1,393.9C360.1,393.8,360.1,393.9,360.1,393.9z"/>
		<path id="XMLID_56_" class="st3" d="M360,393.8C360,393.8,360,393.8,360,393.8L360,393.8L360,393.8z"/>
		<path id="XMLID_55_" class="st3" d="M316.7,393.4C316.7,393.4,316.7,393.4,316.7,393.4C316.7,393.3,316.7,393.3,316.7,393.4z"/>
		<path id="XMLID_54_" class="st3" d="M316.8,393.5C316.8,393.5,316.8,393.4,316.8,393.5C316.8,393.4,316.8,393.5,316.8,393.5z"/>
		<path id="XMLID_53_" class="st3" d="M377.8,430.9C377.8,430.9,377.8,430.9,377.8,430.9L377.8,430.9L377.8,430.9z"/>
		<polygon id="XMLID_52_" class="st6" points="368.1,399.1 368,399 368.1,399 		"/>
		<path id="XMLID_51_" class="st3" d="M377.9,431C377.9,431,377.9,431,377.9,431C377.9,431,377.9,431,377.9,431z"/>
		<path id="XMLID_50_" class="st3" d="M377.9,431.1C378,431.1,378,431.2,377.9,431.1C378,431.2,378,431.1,377.9,431.1z"/>
		<polygon id="XMLID_49_" class="st3" points="359.4,416.1 359.4,416 359.4,416 		"/>
		<path id="XMLID_48_" class="st3" d="M378,431.2c0,0,0.1,0.1,0.1,0.1C378.1,431.3,378.1,431.2,378,431.2z"/>
		<path id="XMLID_47_" class="st3" d="M316.9,393.6c0,0-0.1-0.1-0.1-0.1C316.9,393.5,316.9,393.6,316.9,393.6z"/>
		<path id="XMLID_46_" class="st3" d="M378.2,431.4c0,0,0.1,0.1,0.1,0.1C378.3,431.5,378.3,431.4,378.2,431.4z"/>
		<path id="XMLID_45_" class="st3" d="M378.3,431.5c0,0,0.1,0.1,0.1,0.1C378.4,431.6,378.4,431.5,378.3,431.5z"/>
		<path id="XMLID_44_" class="st6" d="M329.4,408.3C329.4,408.3,329.4,408.3,329.4,408.3L329.4,408.3L329.4,408.3z"/>
		<path id="XMLID_43_" class="st6" d="M329.5,408.4C329.5,408.4,329.5,408.4,329.5,408.4C329.5,408.4,329.5,408.4,329.5,408.4z"/>
		<polygon id="XMLID_42_" class="st3" points="271.4,408 271.4,408 271.4,408 		"/>
		<path id="XMLID_41_" class="st3" d="M271.5,408.1C271.5,408.1,271.5,408.1,271.5,408.1C271.5,408.1,271.5,408.1,271.5,408.1z"/>
		<path id="XMLID_40_" class="st3" d="M378.1,431.3c0,0,0.1,0.1,0.1,0.1C378.2,431.4,378.2,431.3,378.1,431.3z"/>
		<path id="XMLID_39_" class="st5" d="M303.9,427.6c0.1-0.1,0.3-0.2,0.4-0.3c0,0,0,0,0.1,0c-0.1,0.1-0.1,0.3-0.2,0.5
			c-0.8,1.2-1.6,2.5-2.4,3.6c-1,1.4-2.3,2.7-3.5,3.9c-1.7,1.6-3.7,3-5.7,4.2c-3.2,1.9-6.6,3-10.2,3.8c-2.5,0.5-5,0.7-7.6,0.6
			c-1.3-0.1-2.6-0.3-3.9-0.5c-2.1-0.3-4.1-0.9-6.1-1.7c-0.1,0-0.2-0.1-0.2-0.2c0.2,0,0.4,0.1,0.6,0.1c1.7,0.6,3.5,1.2,5.3,1.4
			c1.1,0.2,2.1,0.3,3.2,0.5c0.4,0,0.8,0,1.2,0c0.8,0,1.6,0,2.5,0c1-0.1,2-0.1,3-0.3c1.2-0.2,2.5-0.4,3.7-0.7
			c2.3-0.6,4.6-1.3,6.8-2.5c1.9-1.1,3.8-2.2,5.5-3.6c1.2-0.9,2.3-1.9,3.3-3c1.5-1.6,2.9-3.4,4-5.4
			C303.7,427.9,303.8,427.8,303.9,427.6z"/>
		<path id="XMLID_38_" class="st7" d="M275.6,381.3c-0.1,0.1-0.2,0.1-0.3,0.2c-1.3,0.4-2.5,0.7-3.8,1.1c-2,0.6-3.9,1.6-5.6,2.7
			c-1.3,0.8-2.5,1.6-3.6,2.6c-1.1,0.9-2.1,2-3.1,3.1c-1,1-1.8,2.2-2.6,3.4c-1.1,1.7-2,3.5-2.7,5.4c-0.5,1.3-1,2.7-1.3,4.1
			c0,0,0,0-0.1,0.1c0-0.1-0.1-0.2-0.1-0.3c0.4-1.8,1-3.6,1.8-5.4c0.7-1.6,1.5-3.2,2.5-4.7c0.5-0.8,1.2-1.6,1.8-2.3
			c0.4-0.5,0.8-1,1.3-1.5c0.5-0.6,1.1-1.1,1.7-1.6c1-0.8,1.9-1.6,2.9-2.3c2.6-1.8,5.4-3.1,8.4-4c0.8-0.2,1.7-0.4,2.5-0.7
			C275.4,381.3,275.5,381.3,275.6,381.3z"/>
		<path id="XMLID_37_" class="st7" d="M279.9,380.8c-0.2,0.3-0.4,0.1-0.6,0.1C279.4,380.6,279.6,380.8,279.9,380.8z"/>
		<path id="XMLID_36_" class="st7" d="M278.5,380.9c-0.1,0.3-0.4,0.1-0.5,0.1C278,380.7,278.3,380.9,278.5,380.9z"/>
		<path id="XMLID_35_" class="st7" d="M277.5,381c-0.1,0.3-0.3,0.2-0.5,0.1C277.1,380.9,277.3,381,277.5,381z"/>
		<path id="XMLID_34_" class="st7" d="M252.1,406.5c0.1,0.2,0.1,0.4-0.1,0.5C252,406.8,251.8,406.6,252.1,406.5z"/>
		<path id="XMLID_33_" class="st7" d="M276.8,381.1c-0.1,0.2-0.3,0.2-0.4,0.1C276.4,381,276.6,381.1,276.8,381.1z"/>
		<path id="XMLID_32_" class="st7" d="M276.2,381.2c-0.1,0.2-0.3,0.2-0.4,0.1C275.8,381.1,276,381.2,276.2,381.2z"/>
		<path id="XMLID_31_" class="st7" d="M252,407.8c0,0.2,0.1,0.4-0.1,0.4C251.8,408,251.8,407.9,252,407.8z"/>
		<path id="XMLID_30_" class="st7" d="M252.2,405.7c0.1,0.2,0.1,0.3-0.1,0.4C252.1,406,252,405.8,252.2,405.7z"/>
		<path id="XMLID_29_" class="st7" d="M252.3,405.1c-0.1,0.1-0.1,0.2-0.2,0.3C252.1,405.3,252.1,405.1,252.3,405.1z"/>
		<path id="XMLID_28_" class="st7" d="M252.4,404.6c0,0.1-0.1,0.2-0.1,0.3C252.2,404.7,252.2,404.6,252.4,404.6z"/>
		<path id="XMLID_27_" class="st7" d="M252.5,404.1c0,0.1-0.1,0.2-0.1,0.3C252.3,404.2,252.3,404.1,252.5,404.1z"/>
		<path id="XMLID_26_" class="st5" d="M263.7,441.2c-0.1,0-0.2-0.1-0.3-0.1C263.5,441.1,263.6,441.1,263.7,441.2z"/>
		<path id="XMLID_25_" class="st5" d="M264.4,441.4c-0.1,0-0.2-0.1-0.3-0.1C264.2,441.4,264.3,441.4,264.4,441.4z"/>
		<path id="XMLID_24_" class="st7" d="M395.2,424.2c-1,0.1-1.8,0.5-2.6,1.1c-0.3,0.2-0.4,0.5-0.5,0.8c-0.6,1.8-1.1,3.6-1.7,5.4
			c-0.2,0.6-0.2,0.5-0.8,0.6c-0.9,0.1-1.8,0.2-2.7,0.3c-0.1,0-0.1,0-0.2,0c-1,0-2.1,0.1-3.1,0.1c-1.2,0-2.4-0.2-3.6-0.3
			c-0.2,0-0.3-0.1-0.5-0.2c1.1,0.1,2.2,0.2,3.3,0.3c0.9,0,1.7,0,2.6,0c0.6,0,1.2-0.1,1.8-0.1c0.8-0.1,1.7-0.1,2.5-0.2
			c0.3,0,0.3-0.2,0.3-0.4c0.4-1.3,0.8-2.5,1.2-3.8c0.2-0.7,0.4-1.4,0.7-2c0.1-0.2,0.2-0.4,0.4-0.6c0.8-0.6,1.7-1,2.7-1.2
			C395.3,423.9,395.3,424,395.2,424.2z"/>
		<path id="XMLID_23_" class="st5" d="M409.9,420.5c0,0.1,0,0.1,0,0.2c0,0,0,0,0,0C409.9,420.6,409.9,420.6,409.9,420.5L409.9,420.5
			z"/>
		<path id="XMLID_22_" class="st5" d="M321.3,425.8c-0.5-0.2-1-0.2-1.5-0.2c-0.8,0-1.5,0-2.3,0c-0.3,0-0.4,0.1-0.5,0.4
			c-0.3,1-0.6,2-0.9,3.1c-0.5,0-0.5,0-0.3-0.4c0.3-1,0.6-2,0.9-3c0.1-0.3,0.2-0.4,0.5-0.4c1,0,1.9,0,2.9,0
			C320.5,425.2,321,425.3,321.3,425.8z"/>
		<path id="XMLID_21_" class="st5" d="M323.3,419c-0.9,0-1.9,0-2.8,0c-0.3,0-0.6,0-0.9,0c-0.3,0-0.5,0.1-0.6,0.4
			c-0.3,1-0.6,1.9-0.9,2.9c-0.4,0.1-0.5,0-0.4-0.3c0.3-1,0.6-2,0.9-3c0.1-0.2,0.2-0.3,0.4-0.3c1.2,0,2.3,0,3.5,0
			C322.9,418.6,323.1,418.7,323.3,419z"/>
		<path id="XMLID_20_" class="st5" d="M321.3,425.8C321.3,425.8,321.3,425.8,321.3,425.8C321.3,425.8,321.3,425.8,321.3,425.8z"/>
		<path id="XMLID_19_" class="st5" d="M323.3,419.1c0,0-0.1-0.1-0.1-0.1C323.3,419,323.3,419,323.3,419.1z"/>
		<path id="XMLID_18_" class="st6" d="M356,396.2c-0.2,0-0.5-0.1-0.7-0.1c-0.9,0-1.7,0-2.6,0c-0.3,0-0.4,0.1-0.5,0.4
			c-0.5,1.6-0.9,3.1-1.4,4.6c-0.5,0-0.5,0-0.4-0.4c0.5-1.6,1-3.1,1.4-4.7c0.1-0.2,0.2-0.3,0.4-0.3c0.9,0,1.8,0,2.6,0
			C355.4,395.6,355.9,395.7,356,396.2z"/>
		<path id="XMLID_17_" class="st7" d="M361.1,395.4c0.3,0.3,0.3,0.7,0.3,1c0,0.4,0,0.8,0,1.2c-0.1,0.2-0.2,0.3-0.2,0.5
			c0,0.1,0,0.3-0.1,0.5c-0.2,0.9-0.5,1.8-1,2.6c-0.7,1.1-1.5,2.1-2.7,2.8c-0.2,0.1-0.3,0.3-0.3,0.5c0-0.1-0.1-0.1-0.1-0.2
			c-0.1-0.2,0-0.4,0.2-0.5c1.3-0.8,2.3-2,3-3.4c0.6-1.3,0.9-2.6,1-4.1C361.2,396,361.2,395.7,361.1,395.4z"/>
		<path id="XMLID_16_" class="st7" d="M358.6,409.1c0,0,0,0.1-0.1,0.1c-0.3,0-0.5,0-0.8,0c-1,0-1.9,0-2.9,0c-0.1,0-0.3-0.1-0.5-0.1
			c1.2,0,2.4,0,3.7,0C358.3,409.1,358.5,409.1,358.6,409.1z"/>
		<path id="XMLID_15_" class="st6" d="M356.1,396.3C356.1,396.2,356.1,396.2,356.1,396.3C356.1,396.2,356.1,396.2,356.1,396.3z"/>
		<path id="XMLID_14_" class="st7" d="M285.9,402c0.3,0,0.2,0.2,0.1,0.4c-0.3,0.9-0.6,1.9-0.9,2.8c-0.4,1.2-0.8,2.4-1.2,3.6
			c-0.2,0.5-0.2,0.5-0.7,0.5c-1,0.1-2,0.2-3,0.3c-0.1,0-0.3,0-0.4,0c-1.1,0-2.2,0-3.4,0c-0.9,0-1.9-0.1-2.8-0.2
			c-0.3,0-0.5-0.2-0.8-0.3c2.2,0.3,4.4,0.4,6.6,0.3c1.1-0.1,2.1-0.2,3.2-0.3c0.1,0,0.1,0,0.2,0c0.3,0,0.6,0,0.8-0.1
			c0.2-0.1,0.2-0.4,0.3-0.7c0.6-1.9,1.3-3.9,1.9-5.8C285.8,402.3,285.9,402.1,285.9,402z"/>
		<path id="XMLID_13_" class="st7" d="M363.3,397.7c-0.5,0.1-1,0.4-1.3,0.8c-0.1,0.1-0.2,0.4-0.4,0.1c0.4-0.7,1.1-1,1.8-1.3l0,0
			C363.3,397.4,363.3,397.5,363.3,397.7z"/>
		<path id="XMLID_12_" class="st7" d="M363.3,397.3C363.4,397.3,363.4,397.2,363.3,397.3C363.4,397.3,363.4,397.3,363.3,397.3
			L363.3,397.3z"/>
		<path id="XMLID_11_" class="st5" d="M299,397.4c-0.5,0.8-0.9,1.5-1.3,2.3c-0.5,0.9-1,1.9-1.6,2.8c-0.1,0-0.1,0-0.2,0
			c-0.3,0-0.3,0-0.2-0.3c0.3-0.5,0.5-0.9,0.8-1.4c0.8-1.4,1.6-2.8,2.3-4.1c0-0.1,0.1-0.1,0.2-0.3C299,396.9,299,397.2,299,397.4z"/>
	</g>
</g>
<path id="XMLID_8_" class="st8" d="M283,380.8c0,0-0.1-0.1-0.1-0.1c0,0-0.1,0-0.1-0.1c-0.1,0-0.2,0-0.2,0c-0.1,0-0.3,0-0.4,0
	c0,0-0.2,0-0.4-0.1c-0.4-0.1-0.7-0.1-1.3-0.2c-0.5-0.1-0.8-0.1-1-0.1c-0.5-0.1-0.7-0.1-0.9-0.1c-0.1,0-0.3,0-0.6,0
	c-0.3,0-0.5,0-0.8,0c-0.3,0-0.5,0-0.8,0c-0.2,0-0.3,0-0.5,0c-0.1,0-0.3,0-0.7,0c-0.1,0-0.4,0-0.6,0c-0.2,0-0.5,0-0.8,0
	c-0.2,0-0.4,0-0.7,0.1c-0.1,0-0.3,0-0.6,0.1c-0.2,0-0.4,0-0.7,0.1c0,0-0.2,0-0.5,0.1c0,0-0.1,0-0.2,0c-0.1,0-0.1,0-0.2,0
	c-0.2,0-0.3,0.1-0.3,0.1c-0.1,0-0.3,0-0.3,0.1c-0.1,0-0.1,0-0.1,0c-0.1,0-0.1,0-0.2,0c-0.1,0-0.1,0-0.2,0c-0.1,0-0.2,0-0.3,0.1
	c-0.1,0-0.1,0-0.3,0.1s-0.2,0-0.2,0c0,0-0.1,0-0.2,0c-0.3,0.1-0.3,0.1-0.3,0.1c-0.1,0-0.2,0.1-0.3,0.1c0,0-0.1,0-0.1,0
	c-2.6,0.7-5.1,1.8-5.1,1.8c-0.5,0.2-2,0.9-3.8,2.1c-1.4,0.9-2.4,1.7-2.7,1.9c-0.8,0.6-2.2,1.8-3.9,3.6c-1.9,2.1-3.1,3.9-3.6,4.9
	c-0.3,0.4-1.4,2.3-2.4,5c-0.4,1.1-1.2,3.1-1.7,5.8c-0.3,1.8-0.4,3.2-0.5,4c-0.1,0.8-0.1,1.7-0.1,3c0.1,1.2,0.2,2,0.3,2.9
	c0.1,0.7,0.2,1.7,0.5,3c0.1,0.3,0.3,1.4,0.8,2.9c0.3,1,0.6,1.7,0.7,2c0.2,0.5,0.4,0.9,0.6,1.5c0.1,0.2,0.2,0.5,0.9,1.6
	c0.4,0.8,0.8,1.4,0.9,1.5c0.9,1.6,1.3,2,1.5,2.4c0,0.1,0.2,0.2,0.4,0.6c0.4,0.6,0.5,0.7,0.6,0.8c0.1,0.1,0.2,0.3,0.5,0.6
	c0.2,0.3,0.4,0.5,0.4,0.5c0.5,0.6,1.5,1.5,1.8,1.8c0.8,0.7,1.3,1.2,2.1,1.9c0.4,0.3,0.9,0.8,1.7,1.3c0.7,0.5,1.2,0.8,1.4,0.9
	c0.5,0.3,0.8,0.5,1.3,0.7c0.3,0.2,0.9,0.5,1.7,0.8c0.7,0.3,1.3,0.6,2.1,0.9c0.6,0.2,1.1,0.4,1.5,0.5c0.2,0.1,1.2,0.4,2.5,0.7
	c0.6,0.1,1.1,0.2,1.5,0.3c0.7,0.1,1.1,0.2,1.7,0.3c0.6,0.1,0.6,0,1.4,0.2c0.3,0,0.4,0.1,0.7,0.1c0.4,0,0.7,0,0.9,0
	c0.8,0,0.8,0,1.5,0c0.3,0,0.9,0,1.6-0.1c0.6,0,1-0.1,1.5-0.2c0.6-0.1,1.1-0.1,1.2-0.2c0.5-0.1,0.9-0.2,1.3-0.2
	c0.5-0.1,0.8-0.1,1.2-0.2c0.3-0.1,0.7-0.2,1.2-0.3c0.2-0.1,0.2-0.1,0.6-0.2c0.6-0.2,0.7-0.2,1-0.3c0.3-0.1,0.5-0.1,0.9-0.3
	c0.5-0.2,0.8-0.3,1.1-0.4c0.4-0.1,0.6-0.3,0.8-0.3c0.1,0,0.4-0.2,0.8-0.3c0.4-0.2,0.7-0.3,0.9-0.4c0.4-0.2,0.7-0.4,0.9-0.5
	c0.2-0.1,0.6-0.3,1-0.6c0.4-0.2,0.6-0.4,1.1-0.7c0.4-0.3,0.7-0.5,1.1-0.7c0.6-0.5,1.1-0.8,1.3-1c0.2-0.1,0.7-0.5,1.4-1.1
	c0.3-0.3,0.8-0.7,1.3-1.2c0.5-0.5,0.9-0.9,1.2-1.2c0.5-0.5,1-1.1,1.6-1.8c0.3-0.3,0.2-0.3,1-1.3c0.1-0.1,0.2-0.3,0.4-0.5
	c0.2-0.3,0.3-0.5,0.4-0.7c0.1-0.2,0.2-0.3,0.3-0.5c0.1-0.2,0.1-0.2,0.2-0.3c0-0.1,0-0.1,0-0.1c0.1-0.1,0.3-0.4,0.3-0.4
	c0-0.1,0.1-0.2,0.2-0.4c0.2-0.5,0.2-0.5,0.2-0.5c0,0-0.2,0.1-0.6,0.7c0,0-0.2,0.3-0.6,0.7c-0.5,0.6-0.9,1-1,1.1
	c-0.3,0.3-0.5,0.5-0.6,0.7c-0.2,0.2-0.4,0.4-0.7,0.7c-0.4,0.3-0.6,0.6-1,0.9c-0.3,0.3-0.6,0.5-1,0.8c-0.5,0.4-0.8,0.6-1.3,1
	c-0.4,0.3-0.7,0.5-1.1,0.7c-0.4,0.2-0.8,0.5-1.3,0.8c-0.5,0.3-1,0.5-1.2,0.6c-0.2,0.1-0.9,0.5-1.9,0.9c-0.8,0.3-1.5,0.6-2,0.7
	c-0.5,0.1-1,0.3-1.8,0.5c-0.5,0.1-1,0.2-1.3,0.3c-0.3,0-0.3,0.1-1.6,0.3c-0.8,0.1-0.9,0.2-1.2,0.2c-0.5,0.1-0.9,0.1-1.2,0.1
	c-0.4,0-0.6,0.1-0.7,0.1c-0.5,0-0.9,0.1-1,0.1c-0.1,0-0.5,0-1.1,0c-0.6,0-1,0-1.1,0c-0.4,0-0.7-0.1-1.1-0.1c-0.4,0-0.8-0.1-1.3-0.2
	c-0.6-0.1-1.1-0.2-1.4-0.3c-0.3-0.1-0.6-0.1-0.8-0.2c-0.4-0.1-0.6-0.1-1-0.2c-0.3-0.1-0.5-0.1-0.9-0.3c-0.4-0.1-0.7-0.2-1-0.3
	c-0.2-0.1-0.4-0.1-0.7-0.3c-0.4-0.2-0.6-0.2-0.9-0.3c-0.5-0.2-0.8-0.3-1.1-0.5c-0.5-0.2-0.9-0.4-1.1-0.5c-0.3-0.1-0.6-0.3-1-0.5
	c-0.3-0.2-0.6-0.3-0.9-0.5c-0.2-0.1-0.5-0.3-0.9-0.5c-0.6-0.4-1-0.7-1.4-0.9c-0.3-0.2-0.7-0.5-1.2-0.9c-0.3-0.3-0.6-0.5-0.9-0.8
	c-0.1-0.1-0.4-0.4-0.7-0.7c-0.1-0.1-0.2-0.2-0.3-0.3c-0.1-0.1-0.2-0.2-0.3-0.4c-0.1-0.1-0.2-0.2-0.4-0.4c-0.2-0.2-0.3-0.3-0.4-0.5
	c-0.3-0.3-0.4-0.5-0.7-0.7c-0.3-0.3-0.5-0.6-0.6-0.7c-0.2-0.2-0.3-0.4-0.4-0.6c-0.1-0.1-0.3-0.3-0.4-0.6c-0.1-0.1-0.3-0.4-0.5-0.7
	c-0.1-0.1-0.4-0.5-0.7-1.1c-0.1-0.2-0.4-0.7-0.7-1.2c-0.2-0.4-0.6-1.1-1-2c-0.2-0.4-0.5-1.2-0.9-2.2c-0.3-0.8-0.5-1.5-0.6-2
	c-0.1-0.6-0.3-1.2-0.5-2c-0.2-0.9-0.3-1.6-0.3-2.4c-0.1-1.1-0.2-2-0.2-2.5c0-0.3,0-1.1,0-1.8c0.1-2.8,0.7-5.1,0.9-5.9
	c0.3-1,0.6-2,0.7-2.2c0.2-0.7,0.4-1.2,0.5-1.3c0.2-0.6,0.5-1.1,0.7-1.5c0.3-0.5,0.5-1,0.8-1.7c0.5-1,0.9-1.6,1.1-1.8
	c0.4-0.6,0.8-1.1,0.9-1.3c0.2-0.3,0.4-0.6,0.9-1.1c0.3-0.3,0.4-0.5,0.5-0.6c0.1-0.2,0.4-0.5,0.7-0.8c0.2-0.2,0.6-0.6,1.1-1.2
	c0.5-0.5,0.9-0.8,1.3-1.1c0.3-0.2,0.4-0.4,0.7-0.6c0.5-0.4,1.1-0.8,1.8-1.3c0.4-0.3,0.7-0.5,0.8-0.6c0.5-0.3,0.8-0.5,1.1-0.7
	c0.3-0.2,0.8-0.5,1.4-0.8c0.3-0.1,0.6-0.3,1.1-0.5c0.6-0.3,1.1-0.5,1.5-0.6c0.2-0.1,0.4-0.2,0.9-0.3c0.4-0.2,0.6-0.2,0.7-0.3
	c0.1,0,0.2-0.1,0.7-0.2c0.9-0.3,0.9-0.3,1.1-0.3c0.1,0,0.3-0.1,0.7-0.2c0.4-0.1,0.5-0.1,0.7-0.2c0.2,0,0.5-0.1,0.8-0.2
	c0.2,0,0.4-0.1,0.8-0.1c0.5-0.1,0.8-0.1,1-0.2c0.4,0,0.7-0.1,0.9-0.1c0.4,0,0.6,0,0.9,0c0,0,0.1,0,0.3,0c0.3,0,0.5,0,0.9,0
	c0.6,0,1.1,0,1.1,0c0.1,0,0.4,0,0.6,0c0,0,0,0,0,0c0,0,0.1,0,0.2,0c0.1,0,0.2,0,0.2,0"/>
<path id="XMLID_3_" class="st9" d="M303.8,427.9c0,0,0.1-0.1,0.2-0.2c0.1-0.1,0.1-0.1,0.2-0.2c0.2-0.1,0.3-0.2,0.3-0.2
	c0,0,0,0.1,0,0.2c0,0,0,0-0.1,0.2c0,0.1-0.1,0.1-0.1,0.1c0,0,0,0.1-0.1,0.2c-0.1,0.1-0.1,0.2-0.1,0.2c-0.1,0.1-0.1,0.1-0.1,0.2
	c-0.1,0.1-0.1,0.1-0.2,0.3c-0.1,0.2-0.1,0.1-0.2,0.4c-0.1,0.1-0.1,0.1-0.2,0.3c-0.1,0.1-0.1,0.2-0.2,0.3c-0.2,0.3-0.2,0.3-0.3,0.5
	c-0.3,0.5-0.6,0.8-0.8,1.2c-0.3,0.4-0.6,0.7-0.7,1c-0.1,0.2-0.5,0.7-1.1,1.3c-0.5,0.6-1,1-1.4,1.4c-0.4,0.3-0.7,0.7-1.3,1.2
	c-0.9,0.8-1.6,1.3-2.1,1.7c-0.6,0.5-1.1,0.8-1.4,1c-0.4,0.3-1,0.7-1.8,1.1c-0.5,0.3-1.4,0.8-2.6,1.4c-1,0.5-1.9,0.7-2.6,1
	c-0.4,0.1-1.3,0.4-2.6,0.8c-0.9,0.2-2.1,0.5-3.8,0.8c-2.1,0.3-3.7,0.3-4.1,0.3c-1.5,0-2.6-0.1-3.5-0.2c-0.7-0.1-1.8-0.2-3.1-0.5
	c-1.6-0.3-2.7-0.7-3.1-0.8c-1.7-0.6-3.1-1.2-3.1-1.2c0,0,0.4,0.2,0.9,0.4c0.4,0.1,1.9,0.7,4,1.2c0.5,0.1,1.7,0.4,3.3,0.6
	c0.9,0.1,2.4,0.3,4.4,0.3c1.9,0,3.4-0.2,4.2-0.4c0.4-0.1,2.1-0.3,4.4-0.9c1.1-0.3,2.2-0.6,3.7-1.2c1.3-0.6,2.3-1.1,3-1.5
	c0.3-0.1,1.4-0.8,2.9-1.8c0.6-0.4,1.4-1,2.4-1.8c1.1-0.9,1.9-1.7,2.4-2.2c0.3-0.3,1.1-1.2,2.1-2.4c0.4-0.5,0.9-1.1,1.5-2.1
	C303.2,428.8,303.5,428.3,303.8,427.9z"/>
<path id="XMLID_261_" class="st9" d="M274.4,381.7c2.7-0.6,5.3-0.8,5.3-0.9c0,0-0.1,0-0.3,0c-0.4,0-0.8,0-0.9,0
	c-0.2,0-0.7,0.1-1.3,0.2c-0.3,0-0.5,0.1-1,0.2c-0.2,0-0.4,0.1-0.7,0.1c-0.2,0-0.4,0.1-0.6,0.1c-0.2,0-0.4,0.1-0.6,0.1
	c-0.7,0.2-0.6,0.1-0.9,0.2c-0.5,0.1-0.9,0.3-1.1,0.3c0,0-0.2,0-0.3,0.1c-0.2,0.1-0.4,0.1-0.4,0.1c-0.3,0.1-0.9,0.3-1.5,0.5
	c-0.2,0.1-0.3,0.1-0.6,0.2c-0.3,0.1-0.5,0.2-0.7,0.3c-0.3,0.1-0.4,0.2-0.6,0.3c0,0-0.3,0.2-0.6,0.3c-1.3,0.6-2.5,1.5-2.5,1.5
	c-0.6,0.4-1.1,0.7-1.3,0.9c-1.3,0.9-2.1,1.7-2.3,1.8c-0.5,0.5-1.2,1-1.9,1.8c-0.8,0.8-1.3,1.5-1.9,2.3c-0.5,0.6-0.9,1.2-1.4,2
	c-0.5,0.9-0.9,1.6-1.2,2.1c-0.3,0.5-0.6,1.2-0.9,2c-0.1,0.3-0.4,1-0.7,1.9c-0.2,0.5-0.5,1.4-0.8,2.5c-0.1,0.2-0.3,1.1-0.5,2.1
	c-0.1,0.5-0.2,1.2-0.3,2.1c-0.1,0.9-0.1,1.6-0.1,2.3c0,1,0,1.8,0.1,2.3c0.1,0.7,0.1,1.5,0.3,2.6c0.1,0.4,0.2,1.2,0.4,2.2
	c0.4,1.7,0.9,3,1,3.5c0.3,0.8,1.2,3.1,2.9,5.6c0.1,0.1,0.2,0.3,0.2,0.3c1.1,1.6,2.1,2.7,2.8,3.5c-0.6-0.8-1.4-1.8-2.2-3.1
	c-0.4-0.7-1.6-2.5-2.6-4.4c-2-4.3-2.4-8.3-2.5-10c-0.1-0.9-0.1-1.6-0.1-1.8c-0.1-2.9,0.3-5.1,0.5-5.9c0.1-0.8,0.7-3.3,2.2-6.4
	c0.3-0.5,3.5-7.2,10.3-11.8c1.9-1.3,3.6-2.1,4-2.3C270.3,383,272.1,382.3,274.4,381.7z"/>
<path id="XMLID_262_" class="st0" d="M252.2,410c0-0.1,0-0.2,0-0.3c0-0.2,0-0.4,0-0.5c0,0,0-0.2,0-0.5c0-0.9,0.1-1.6,0.1-1.6
	c0-0.3,0.1-1.2,0.3-2.4c0.1-0.4,0.3-1.6,0.8-3.2c0.7-2.2,1.4-4.6,3.2-7.4c1.6-2.4,3.2-4,4.5-5.1c0.4-0.4,2.2-2,4.7-3.6
	c1.4-0.9,3.2-2,5.7-2.9c0.4-0.2,0.9-0.3,1.3-0.4c0.7-0.2,1.5-0.4,3.1-0.7c1.8-0.4,2.7-0.6,3.7-0.6c0.1,0,0.2,0,0.6,0
	c0,0,1.8,0,2.3,0c0.2,0,0.3,0,0.4,0c0.1,0,0.2,0,0.3,0c0.1,0,0.1,0,0.3,0c0,0,0,0,0.1,0c0,0,0.4,0.1,0.4,0.2c0,0,0,0.1-0.1,0.1
	c0,0-0.1,0.1-0.2,0.1c-0.1,0-0.2,0-0.4,0c-0.1,0-0.2,0-0.3,0c-0.2,0-0.5,0-1.1,0c-0.9,0-1,0-1.6,0c-0.3,0-0.6,0-0.7,0
	c0,0-0.5,0-0.9,0.1c-1.1,0.1-2.1,0.3-2.3,0.3c-0.4,0.1-1.1,0.2-2.1,0.5c-0.3,0.1-1.3,0.4-2.6,0.8c-1.1,0.4-1.9,0.7-2.2,0.9
	c-1.2,0.5-2.1,1-2.5,1.3c-0.8,0.5-1.5,0.9-1.8,1.1c-1.2,0.8-2,1.5-2.3,1.7c-0.3,0.3-0.8,0.7-1.4,1.2c-0.2,0.2-0.8,0.7-1.5,1.5
	c-0.6,0.7-1,1.2-1.3,1.5c-0.2,0.3-0.5,0.6-0.8,1.1c-0.4,0.6-0.7,1-0.8,1.2c-0.4,0.6-0.6,1-0.8,1.4c-0.4,0.7-0.7,1.3-0.8,1.4
	c-0.1,0.2-0.4,0.8-0.7,1.6c-0.3,0.8-0.5,1.4-0.6,1.6c-0.1,0.3-0.3,1-0.6,1.8c-0.2,0.7-0.3,1.2-0.4,1.4c0,0.1-0.1,0.6-0.3,1.3
	c-0.1,0.7-0.3,1.4-0.3,2.3c0,0.2,0,0.5-0.1,0.9c0,0.2,0,0.4,0,0.6C252.2,409.1,252.2,409.5,252.2,410z"/>
</svg>
