<?xml version="1.0" encoding="utf-8"?>
<!-- Generator: Adobe Illustrator 19.0.1, SVG Export Plug-In . SVG Version: 6.00 Build 0)  -->
<svg version="1.1" id="Layer_1" xmlns="http://www.w3.org/2000/svg" xmlns:xlink="http://www.w3.org/1999/xlink" x="0px" y="0px"
	 viewBox="95.9 187 414.1 418.7" style="enable-background:new 95.9 187 414.1 418.7;" xml:space="preserve">
<style type="text/css">
	.st0{fill:#E49039;}
	.st1{fill:#B0B0B0;}
	.st2{fill:#414141;}
	.st3{fill:#635E59;}
	.st4{fill:#989898;}
	.st5{fill:#494949;}
	.st6{fill:#FFFFFF;}
</style>
<g>
	<g>
		<path d="M194.1,508.9c0.3,0.3,0.6,0.6,0.9,0.9c1.8,1.6,3.6,3.4,5.4,5.1c0.3,0.3,0.6,0.6,0.9,0.9c0.8,0.8,1.7,1.3,2.4,2.1
			c0.2,0.2,0.4,0.5,0.6,0.6c0.6,0.5,1.2,1.1,1.8,1.5c0.2,0.2,0.5,0.3,0.6,0.6c0.5,0.3,0.8,0.6,1.2,0.9c0.4,0.3,0.8,0.6,1.2,0.9
			c0.2,0.2,0.5,0.3,0.6,0.6s0.5,0.3,0.6,0.6c0.3,0.1,0.6,0.4,0.9,0.6c0.3,0.2,0.6,0.4,0.8,0.6c0.3,0.2,0.5,0.3,0.8,0.6
			c0.6,0.5,1.3,1.1,2,1.5c0.3,0.2,0.4,0.3,0.8,0.6c0.2,0.1,0.3,0.3,0.4,0.3c0.3,0.2,0.5,0.3,0.8,0.5c0.2,0.1,0.3,0.3,0.5,0.4
			c0.3,0.2,0.4,0.3,0.8,0.5c18.4,13.6,38.8,23.5,61.1,29.4c10.4,2.7,21,4.7,31.7,5.6c10.6,0.9,21.3,0.9,31.9,0.2
			c18.3-1.4,36-5.4,52.9-12.2c17.7-6.9,33.9-16.5,49.1-27.9c13.8-10.5,25.3-23.3,35.8-37.1c11.7-15.4,20.3-32.6,26.7-50.7
			c0.2,0.4,0.2,0.8,0.3,1.2c-0.1,1.1-0.4,2.1-0.6,3.3c-0.3,1.4-0.6,2.6-0.9,3.9c-5.3,22.3-13.8,43.2-26.3,62.6
			c-10.3,16.2-22.8,30.9-36.9,43.9c-6.2,5.7-12.8,10.7-19.7,15.4c-10.2,7.1-20.8,13.5-32.1,18.6c-7.7,3.5-15.3,6.8-23.3,9.5
			c-10.8,3.8-21.8,6.6-33,7.9c-7.4,0.9-14.7,1.8-22.1,2.3c-5.1,0.3-10.4,0.1-15.4,0.1c-1.1,0-1.9,0.1-3,0.1c-0.3,0-0.8,0-1.1,0
			c-1.2-0.1-2.3-0.1-3.4-0.3c-0.3,0-0.8,0-1.1,0c-1.1-0.1-2.1-0.1-3.2-0.3c-0.4,0-0.9,0-1.3,0c-0.6-0.1-1.1-0.1-1.7-0.3
			c-0.3,0-0.8,0-1.1,0c-0.4,0-0.9-0.1-1.3-0.1c-0.3,0-0.8,0-1.1-0.1c-0.4-0.1-0.9-0.1-1.4-0.3c-0.3,0-0.4,0-0.8,0s-0.9-0.1-1.3-0.1
			c-0.3,0-0.8,0-1.1-0.1c-0.3,0-0.8-0.1-1.1-0.1s-0.8-0.1-1.1-0.1c-0.3-0.1-0.8-0.1-1.1-0.3c-0.3,0-0.4,0-0.8,0s-0.8-0.1-1.1-0.1
			s-0.4,0-0.8-0.1c-0.3,0-0.8-0.1-1.1-0.1s-0.4-0.1-0.8-0.1s-0.8-0.1-1.1-0.1s-0.4,0-0.8-0.1c-0.3,0-0.4-0.1-0.8-0.1
			s-0.4-0.1-0.8-0.1s-0.4-0.1-0.8-0.1s-0.4-0.1-0.8-0.1s-0.4-0.1-0.8-0.1s-0.4-0.1-0.8-0.1s-0.4-0.1-0.8-0.1
			c-0.6-0.1-1.4-0.3-1.9-0.5c-0.3,0-0.4-0.1-0.8-0.1c-4.9-1.2-9.9-2.4-14.8-3.8c-12.9-3.9-25.3-9.1-37.1-15.9
			c-11.7-6.6-22.7-14.1-33-22.6c-2.5-2.1-5.1-4.4-7.7-6.5l0,0c-1.5-1.3-3-2.8-4.5-4.2c-2.7-2.7-5.4-5.4-8.1-8.1
			c-0.8-0.8-1.5-1.5-2.1-2.4c-0.6-0.6-1.2-1.2-1.8-1.8c-0.3-0.3-0.6-0.6-0.9-0.9c-13.1-15.8-24-32.7-32.6-51.3
			c-7.3-16.1-12.5-32.7-15.3-50.1c-2.1-12.6-3-25.3-2.5-38.3c1.2-38.8,11.5-75,33-107.7c13.3-20.3,29.4-37.9,48.6-52.7
			c21-16.1,44.3-28.1,69.9-35.4c10.2-3,20.7-5.1,31.3-6.2c5.3-0.6,10.5-0.9,15.6-1.2c-1.2,0.3-2.4,0.6-3.6,1.1c-0.3,0-0.4,0-0.8,0
			c-6.9,1.8-13.8,3.6-20.6,5.7c-13.5,4.2-26.1,10.3-38.1,17.6c-16.2,9.8-30.5,21.8-43.1,35.8c-7.5,8.4-14.5,17.4-20.5,27
			c-7.2,11.4-13.2,23.6-17.7,36.3c-4,11.6-7,23.3-8.7,35.4c-1.3,9.3-2.1,18.4-2.3,27.9c-0.2,4.3,0.2,8.6,0.4,12.9
			c0.6,7.1,1.5,14.1,2.4,21.2c0.3,2.1,1.1,4.1,1.5,6.1c0,0.2,0,0.3,0,0.4c0.6,2.7,1.3,5.3,2,7.9c0,0.2,0,0.3,0.2,0.4
			c0.3,1.2,0.8,2.6,1,3.8c0,0.2,0,0.3,0.2,0.4c0.3,0.9,0.6,1.7,0.8,2.6c0.3,0.8,0.5,1.5,0.8,2.3c0.3,0.9,0.6,1.8,0.9,2.6
			c3.8,10.9,8.4,21.4,14.3,31.5c5.3,9,11,17.9,17.6,25.9C185.7,500.4,190.1,504.6,194.1,508.9z"/>
		<path class="st0" d="M488.3,413.1c-0.1-0.6-0.4-1.2-0.4-1.8c0.8-5.3,1.7-10.5,2.4-15.8c1.1-6.4,1.9-12.9,3-19.4
			c0.1-0.6,0.3-1.1-0.6-1.1c-2.1,0-4.5-0.1-6,1.5c-1.6,1.8-3.4,3.9-3.8,6.2c-1.8,9.6-3.1,19.5-4.6,29.1c-0.2,0.9-0.4,1.1-1.2,1.1
			c-1.9,0-3.9,0-5.9,0c-0.1-0.4-0.6-0.8-0.6-1.2c1.1-7.2,2.3-14.3,3.3-21.4c0-0.4,0.1-0.8,0.1-1.2c0.2-0.6,0.4-1.1-0.6-1.1
			c-1.1,0-2.3,0.2-3.3,0c-1.2-0.1-1.7,0.4-1.8,1.5c-1.1,7.4-2.3,14.7-3.3,21.9c-0.2,0.9-0.4,1.3-1.5,1.2c-1.9,0-3.8,0-5.7,0.1
			c-0.2-0.4-0.6-1.1-0.4-1.5c1.1-6.6,2.1-13.3,3.1-19.9c0-0.4,0-0.8,0.2-1.2c0-0.4,0.1-0.9,0.1-1.3c-0.1,0-0.4,0-0.6,0
			c-2.1,1.1-4.1,2.6-4.5,5.1c-1.1,5.9-1.9,11.9-3,17.7c0,0.4-0.4,1.1-0.9,1.1c-1.8,0.4-3.4,0.9-5.3,1.1c-3.6,0.4-7.2,0.3-10.8-0.9
			c-2.6-2.4-3-5.7-3.1-9c-0.3-7.5,0.9-14.7,2.3-22.1c0.6-3.4,1.5-6.9,2.3-10.2c0.8-3,1.8-5.7,4.3-7.7c0.8-0.6,1.9-1.1,3-1.1
			c4.5-0.1,9,0,13.5,0c0.3,0,0.8,0.3,1.1,0.6c-0.6,3.1-1.2,6.3-1.5,9.6c-0.1,1.5-0.8,1.8-2.1,1.8c-3-0.1-5.9,0-8.9,0
			c-1.1,0-1.6,0.4-2.1,1.4c-0.2,0.4-0.4,1.1-0.4,1.5c-1.8,6.6-2.9,13.5-3.3,20.3c-0.2,1.2,0,2.7,1.5,3.3c1.2,0.1,2.4,0.3,3.8,0.3
			c0.3,0,0.9-0.6,0.9-1.1c0.6-3,1.1-6.2,1.5-9.2c0.2-1.1,0.6-1.3,1.5-1.3c1.7,0,3.2,0,4.8,0c0.9,0,1.2-0.3,1.5-1.1
			c0.8-2.3,1.5-4.5,2.6-6.6c0.8-1.5,2.1-2.7,3.3-4.1c0.3-0.3,0.6-0.8,0.6-1.2c0.8-4.2,1.3-8.6,2.1-12.9c0.2-0.9,0.4-1.4,1.5-1.4
			c1.8,0.2,3.4,0,5.3,0c0.3,0,0.8,0.4,1.1,0.6c-0.8,4.2-1.3,8.6-2.1,12.8c-0.2,1.1,0.4,1.1,1.2,0.9c4.2,0.2,4.2,0.2,4.8-3.9
			c0.4-3,1.1-6.2,1.5-9.2c0.1-0.9,0.4-1.5,1.5-1.3c1.8,0,3.8,0,5.6,0c0.3,0,0.6,0.4,0.9,0.6c-0.8,4.7-1.5,9.3-2.3,13.9
			c0.2,0,0.2,0,0.3,0c0.9-2.6,1.7-4.9,2.6-7.5c1.2-2.1,2.3-4.5,4.5-5.7c1.5-0.8,3.2-1.3,4.8-1.5c4.2-0.1,8.4,0,12.6,0
			c0.4,0,0.9,0.4,1.3,0.8c-0.1,0.3-0.1,0.6-0.3,1.1c-0.4,2.9-0.9,5.9-1.3,8.7c-0.2,1.1-0.6,1.5-1.7,1.5c-1.3-0.1-2.7-0.1-4.1,0
			c-0.3,0-0.9,0.6-1.1,0.9c-0.9,5.8-1.8,11.7-2.7,17.6c-0.9,6-1.8,12-2.7,18c-0.1,1.1-0.4,1.5-1.6,1.5
			C491.9,412.9,490.1,413.1,488.3,413.1z"/>
		<path class="st0" d="M294.6,375c1.2-3.2,2.1-6.3,4.3-8.7c1.8-1.9,4.1-3,6.8-3c4.1,0,7.9,0,12,0c0.4,0,0.8,0.4,1.2,0.6
			c-0.4,3.2-0.9,6.4-1.2,9.6c-0.1,1.2-0.4,1.8-1.8,1.6c-3-0.1-6,0-9,0c-1.9,0-3.1,1.1-3.6,2.9c-0.8,2.6-0.4,4.1,1.1,5.1
			c0.1,0,0.1,0,0.1,0.2l0,0c1.7,0.1,3.3,0.1,4.9,0.4c1.2,0.3,2.3,0.9,3.4,1.3l0,0c0.2,0.2,0.2,0.2,0.3,0.3l0,0
			c0.2,0,0.2,0.2,0.2,0.2c0.4,1.8,1.3,3.4,1.5,5.3c0.4,4.8-0.6,9.4-1.9,14.1c-1.8,6.3-4.4,8.1-10.8,8.1c-3.2,0-6.2,0-9.3,0.1
			c-0.2-0.4-0.6-0.9-0.6-1.2c0.3-3.1,0.8-6.3,1.1-9.4c0.2-1.1,0.6-1.1,1.4-1.1c3,0,6.1,0,9.1,0c3.4,0.2,4.9-2.3,3.9-6
			c-0.2-1.1-0.9-1.1-1.7-1.1c-2.6,0-5.1,0.2-7.2-1.5c-0.1,0-0.1,0-0.1-0.1l0,0c-0.6-2.1-1.5-4.1-1.9-6.2c-0.4-1.9-0.3-4.2-0.4-6.1
			c0.1-0.9,0.1-1.9,0.3-2.9c-0.2-0.1-0.3-0.1-0.4-0.3c-0.9,1.4-1.8,2.6-2.7,3.9c-0.2,0-0.3,0-0.4,0c0-0.2-0.2-0.3-0.2-0.4
			c0,0.1,0,0.3,0,0.4c-0.1,0.8-0.3,1.5-0.4,2.4c-0.9,4.5-1.9,9-4.6,12.8c-0.8,1.2-1.2,2.1-0.8,3.4c0.6,3.9,1.2,7.8,1.9,11.7
			c0.3,1.4-0.2,1.5-1.4,1.5c-1.5,0-2.8,0-4.3,0c-0.3,0-0.8,0-1.1,0c-0.6-2.7-1.1-5.3-1.7-7.9c-0.3-1.6-0.6-3.4-0.9-5.1
			c-0.3-0.3-0.6-0.9-1.1-1.1c-0.9-0.2-1.8,0-2.7,0c-0.9,0-1.4,0.3-1.5,1.2c-0.6,3.9-1.2,7.8-1.8,11.8c-0.2,0.9-0.4,1.2-1.4,1.2
			c-1.8,0-3.8,0-5.6,0.2c-0.1-0.4-0.6-0.9-0.6-1.2c2.3-14.4,4.5-28.7,6.8-43.1c0.3-1.5,0.4-3,0.6-4.5c0.2-0.8,0.3-1.1,1.2-1.1
			c4.1,0,8.1,0,12.2,0.1c1.2,0,2.4,0.9,3.6,1.4l0,0c0.2,0.1,0.2,0.1,0.3,0.3l0,0c0.2,0,0.2,0.1,0.2,0.1c0.1,0,0.1,0.2,0.1,0.2l0,0
			c3.2,4.3,2.6,9.4,2.6,14.3C293.7,378.3,294.2,376.6,294.6,375z M284.9,373.3c-0.4-0.3-0.8-0.9-1.4-0.9c-1.2-0.1-2.3,0-3.4,0
			c-0.8,0-1.1,0.3-1.2,1.1c-0.8,4.8-1.5,9.4-2.3,14.3c-0.1,1.1,0.3,1.1,1.1,0.9c0.8,0,1.4,0,2.1,0c2.1,0.1,3.4-0.8,4.2-2.7
			c0.8-2.1,1.5-4.2,1.8-6.3C286.1,377.7,286.4,375.3,284.9,373.3z"/>
		<path class="st0" d="M366.5,381c2.7-5.6,5.6-11.1,8.3-16.7c0.4-0.8,0.9-1.2,1.8-1.2c1.9,0.2,3.8,0,5.7,0c0.3,0,0.6,0.4,0.9,0.6
			c-0.3,0.6-0.8,1.1-1.1,1.6c-3.8,7.1-7.7,14.1-11.4,21.3c-0.9,1.8-2.3,3.4-2.6,5.4c-1.2,6.4-2.1,13.1-3.1,19.5
			c-0.2,1.1-0.4,1.5-1.5,1.5c-1.8,0-3.6,0-5.4,0c-1.1,0-0.6-0.6-0.6-1.2c0.9-5.6,1.6-11.1,2.6-16.7c0.4-2.6,0.6-4.9-0.2-7.3
			c-0.8-2.9-1.2-5.7-1.8-8.6c-0.1-0.6-0.3-1.1-0.3-1.7c-0.1-0.8-0.1-1.5-0.3-2.4c-0.1,0.4-0.3,0.6-0.3,0.8c-0.1,0.3-0.1,0.8-0.1,1.1
			c-0.8,4.1-2.1,7.8-4.9,10.8c-0.8,0.8-0.3,1.1,0.3,1.5c0.4,1.1,0.9,2.1,1.3,3.3c0.6,4.6-0.1,9.1-1.8,13.5
			c-2.3,5.6-4.5,7.2-10.1,7.1c-3.9-0.2-7.6,0-11.6,0c-0.3,0-0.6,0-0.8,0.1c-0.1-0.3-0.6-0.6-0.4-0.9c1.7-10.8,3.4-21.8,5.1-32.6
			c0.1-1.2,0.3-2.4,0.6-3.8c0-0.6,0-1.1,0-1.7c-0.4,0.3-1.2,0.4-1.5,0.9c-0.8,1.1-1.3,2.1-1.9,3.1c-1.1,0.6-0.8-0.3-0.6-0.6
			c0.3-1.4,0.6-2.6,1.1-3.9c0.9-2.3,1.6-4.6,2.8-6.8c1.5-2.7,4.2-3.9,7.4-3.9c3.6,0,7.2,0.1,10.6,0.3c0.8,0,1.5,0.4,2.3,0.6l0.2,0.2
			c0-0.2,0-0.2,0-0.3c0.1-0.3,0.4-0.8,0.6-0.8c2.1,0,4.2,0,6.3,0c0.2,0,0.4,0.4,0.6,0.6c1.1,6.2,1.9,12.3,3,18.8
			C366,381.7,366.2,381.3,366.5,381z M349.2,373.5c-0.4-0.3-0.9-0.9-1.5-1.1c-1.3-0.2-2.6,0-3.9,0c-1.1-0.2-1.4,0.3-1.5,1.3
			c-0.4,3-0.8,6-1.4,9c-0.1,1.2,0.3,1.2,1.1,1.1c1.5-0.1,3.3,0.2,4.7-0.4C349.2,382.3,351.2,375.6,349.2,373.5z M338.9,404.2
			c0.6,0,1.1,0.1,1.6,0c1.2-0.2,2.6-0.2,3.4-0.8c2.4-1.7,3.4-6.9,2.1-9.6c-0.3-0.3-0.6-0.9-0.9-0.9c-1.8-0.2-3.6-0.3-5.4-0.3
			c-0.2,0-0.4,0.4-0.4,0.8c-0.6,3.1-1.1,6.4-1.5,9.6C337.7,403.9,338,404.4,338.9,404.2z"/>
		<path class="st0" d="M222,402.3c-0.2-0.4-0.6-0.9-0.6-1.4c-0.6-5.6-1.1-10.9-1.7-16.5c-0.2-1.8-0.3-3.6-0.5-5.4c-0.6,3-1,6-1.5,9
			c-0.4,3-0.9,6.1-1.5,9.1c-0.8,4.8-1.5,9.6-2.3,14.4c-0.2,1.1-0.6,1.3-1.7,1.3c-1.8-0.1-3.6,0-5.4,0.2c-0.2-0.4-0.6-0.9-0.6-1.2
			c2.1-13.8,4.2-27.8,6.5-41.6c0.3-1.9,0.6-4.1,0.9-6c0-0.3,0.6-0.9,1-0.9c2.3,0,4.5-0.1,6.8,0c0.8,0,1.5,0.8,2.4,1.1l0,0
			c0.2,0,0.2,0,0.2,0.2c0.5,1.1,1.1,2.3,1.2,3.3c0.3,2.3,0.4,4.5,0.8,6.8c0.2,1.5,0.3,3,0.4,4.5c0.2,0,0.2,0,0.3,0
			c0.3-0.6,0.4-1.2,0.8-1.9c1.3-3.2,2.7-6.4,4-9.6c0.5-1.2,1.2-2.3,2.1-3.3c0.6-0.6,1.5-1.1,2.3-1.2c2.1-0.1,4.3-0.1,6.4,0
			c0.3,0,0.4,0.4,0.8,0.6c-0.3,1.5-0.6,3-0.8,4.5c-0.6,3.9-1.1,7.8-1.7,11.7l0,0c-0.6,3.6-1.2,7.1-1.8,10.6
			c-1.1,7.1-2.3,14.1-3.3,21c-0.2,0.9-0.4,1.1-1.2,1.1c-1.9,0-3.9,0-5.8,0.2c-0.2-0.6-0.5-1.2-0.5-1.8c0.8-4.8,1.5-9.6,2.3-14.3
			c0.6-3.8,1.1-7.7,1.7-11.4c0.3-1.8,0.6-3.6,1.1-5.4c-0.4,0.1-0.6,0.4-0.8,0.8c-2.8,6.6-5.7,13.3-8.4,19.9
			C223.4,401.8,222.9,402.3,222,402.3z"/>
		<path class="st0" d="M388.2,413.1c-0.1-0.4-0.6-0.9-0.6-1.2c2.1-13.8,4.2-27.8,6.4-41.6c0.3-1.9,0.6-4.1,0.9-6
			c0-0.3,0.6-0.9,1.1-0.9c2.3,0,4.5-0.1,6.8,0c0.8,0,1.5,0.8,2.4,1.1l0,0c0.1,0,0.1,0,0.1,0.2c0.4,1.2,1.1,2.6,1.2,3.8
			c0.8,6.4,1.2,12.9,1.9,19.5c0.2,1.1,0.3,2.3,0.4,3.3h0.2c0.1-1.4,0.4-2.7,0.6-3.9c1.2-7.5,2.4-14.8,3.4-22.3
			c0.2-1.2,0.6-1.7,1.8-1.7c1.5,0.2,3,0,4.5,0c0.4,0,0.8,0.3,1.2,0.6c-0.6,4.2-1.3,8.4-1.9,12.6c-1.8,11.7-3.6,23.4-5.4,35.1
			c-0.2,0.9-0.4,1.3-1.5,1.3c-2.4,0-4.9,0-7.4,0.2c-0.1-0.4-0.6-0.9-0.6-1.4c-1.1-9.1-1.9-18.3-2.9-27.6c-0.1-1.7-0.3-3.4-0.4-5.1
			c-0.9,4.8-1.6,9.6-2.4,14.3c-0.9,6.2-1.9,12.3-2.9,18.4c-0.1,0.9-0.4,1.2-1.5,1.2C392,412.9,390,413.1,388.2,413.1z"/>
		<path class="st0" d="M243,373c1.7-3,3-6.2,5.8-8.1c1.2-0.9,2.8-1.5,4.3-1.6c4.8-0.2,9.6-0.2,14.6-0.2c0.3,0,0.6,0.3,0.9,0.6
			c-0.6,3.4-1.2,6.8-1.7,10.2c-0.1,1.1-0.6,1.2-1.5,1.2c-3,0-6,0-9,0c-1.2,0-1.8,0.4-2.1,1.5c-0.4,1.6-0.8,3.3-1.2,4.9
			c-0.3,1.1,0,1.3,1.1,1.2c2.4,0,4.6,0,7.1,0c0.3,0,0.8,0.4,1.1,0.8c-0.4,2.4-0.9,4.6-1.2,7.1c-0.2,1.2-0.4,1.9-1.9,1.8
			c-2.3-0.2-4.7-0.2-6.9,0c-0.4,0-1.2,0.4-1.2,0.8c-0.3,1.8-0.6,3.8-0.6,5.6c0,0.8,0.9,1.6,1.3,2.4c3.6,1.2,7.2,1.4,10.7,0
			c0.8-0.3,0.9-0.1,0.8,0.6c-0.6,3.4-1.1,6.9-1.7,10.3c-0.1,0.4-0.6,1.1-1.1,1.2c-4.8,1.5-9.6,1.4-14.6,0.2l0,0
			c-0.2-0.2-0.2-0.2-0.3-0.3c-0.2-0.2-0.3-0.3-0.4-0.4l0,0c-2.4-3-2.7-6.4-2.7-10.1c-0.2-7.4,1.2-14.6,2.4-21.8
			c0.2-0.6,0.3-1.2,0.4-1.9c0-0.4,0.2-0.9,0.2-1.4c-0.4,0.2-1.1,0.2-1.5,0.4c-0.9,0.9-1.8,1.8-2.7,2.9c-0.2,0.1-0.3,0.3-0.6,0.4
			c0-0.3-0.2-0.6-0.2-0.8l0,0C241.4,377.8,242.1,375.4,243,373z"/>
		<path class="st0" d="M156.5,412.9c-2.1-1.8-2.7-4.3-2.8-6.9c-0.3-3.8-0.5-7.5,0.2-11.3c1-7.7,2.5-15.3,4-22.9
			c0.6-3,1.8-5.9,4.5-7.8c0.9-0.6,2-1.1,3-1.1c4.5-0.2,9,0,13.5,0c0.3,0,0.8,0.3,1.1,0.6c-0.6,3.3-1.2,6.8-1.7,10.1
			c-0.2,1.1-0.5,1.4-1.5,1.4c-2.8,0-5.7,0-8.6,0c-2.3,0-2.7,0.3-3.3,2.6c-0.9,3.4-1.7,6.9-2.3,10.3c-0.6,3.6-0.8,7.2-1.1,10.8
			c0,1.1,0,2.3,1.3,2.7c1.2,0.2,2.4,0.3,3.8,0.3c0.3,0,0.9-0.6,0.9-1.1c0.6-3,1.1-6,1.5-9.1c0.2-0.9,0.3-1.4,1.3-1.4
			c1.8,0.2,3.6,0,5.4,0c0.3,0,0.8,0.4,1.1,0.6c-0.3,1.6-0.6,3.1-0.9,4.8c-0.9,5.4-1.8,10.6-2.7,16.1c0,0.4-0.4,0.9-0.9,1.1
			c-1.8,0.4-3.4,0.9-5.3,1.1C163.7,414.3,160.1,414.3,156.5,412.9z"/>
		<path class="st0" d="M197.6,413.1c-0.2-0.4-0.4-0.9-0.4-1.4c0-2.7,0-5.4,0-8.1c0.2-0.9-0.2-1.2-1.1-1.2c-1.9,0-3.8,0-5.7,0
			c-0.9,0-1.2,0.3-1.5,1.1c-0.8,2.6-1.7,5.1-2.3,7.8c-0.3,1.5-1.1,1.8-2.6,1.8c-1.8-0.2-3.4,0-5.3,0.1c-1.3-0.1-0.6-0.9-0.4-1.3
			c2.5-8.3,5.1-16.5,7.7-24.9c1.7-5.4,3.2-10.6,4.9-15.9c0.8-2.1,2-3.9,3-5.9c0.6-1.2,1.8-1.8,3.2-1.8c2,0,4.1,0,6,0
			c0.3,0,0.6,0.4,0.9,0.6c0,0.8,0,1.5,0,2.3c0,10.6,0,21.3,0,31.8c0,4.5,0,9.1,0,13.6c0,1.1-0.3,1.4-1.3,1.4
			C200.9,412.9,199.2,413.1,197.6,413.1z M197.1,379.6c0-1.3,0-2.6,0-3.9c-1.8,5.6-3.5,11.1-5.1,16.6c-0.3,1.1,0.3,1.1,1,0.9
			c0.9,0,2,0,2.8,0c1.1,0.1,1.2-0.3,1.2-1.4C197.1,388,197.1,383.8,197.1,379.6z"/>
		<path class="st0" d="M419.3,413.1c-0.1-0.6-0.4-1.2-0.4-1.8c0.8-5.4,1.7-10.7,2.6-15.9c1.5-9.9,3.2-19.9,4.7-29.8
			c0.3-1.7,0.8-2.4,2.4-2.1c1.4,0.2,2.9,0,4.2,0c0.4,0,0.9,0.3,1.4,0.3c-1.7,9.9-3.2,19.8-4.7,29.9c-0.9,6-1.8,12-2.7,18
			c-0.1,1.1-0.4,1.5-1.6,1.5C422.9,412.9,421.1,413.1,419.3,413.1z"/>
		<path class="st1" d="M194.1,508.9c-4.1-4.3-8.3-8.6-12.2-13.2c-6.6-8.1-12.3-16.9-17.6-25.9c-5.8-10.1-10.5-20.6-14.3-31.5
			c-0.3-0.9-0.6-1.8-0.9-2.6c-0.3-0.8-0.4-1.5-0.8-2.3c-0.3-0.9-0.6-1.6-0.8-2.6c0-0.1,0-0.3-0.2-0.4c-0.3-1.2-0.8-2.6-1-3.8
			c0-0.1,0-0.3-0.2-0.4c-0.6-2.7-1.3-5.3-2-7.9c0-0.1,0-0.3,0-0.4c0-0.3,0.2-0.6,0-1.1c-2.1-10.1-3.3-20.3-3.6-30.4
			c-0.4-12.4,0.5-24.9,2.3-37.3c2.7-18.2,8.1-35.4,16.1-51.9c6.9-14.3,15.4-27.3,25.7-39.3c6.9-8.2,14.5-16.1,22.7-23.1
			c9-7.9,18.9-14.7,29.3-20.8c12.8-7.3,25.9-13.2,40.2-17.1c4.5-1.2,9-2.3,13.5-3.4c0.4-0.2,1.7,0.2,1.4-1.1
			c1.2-0.3,2.4-0.6,3.6-1.1c0.4,0,0.9-0.3,1.1-0.2c0.4,0.3,0.8,0.8,1.1,1.2c-0.3,0.2-0.6,0.4-0.9,0.6c-6.8,1.7-13.5,3-20.3,4.8
			c-11.6,3.2-22.3,7.9-33,13.3c-10.3,5.4-20.1,11.7-29.3,18.9c-7.5,5.8-14.4,12.4-20.8,19.3c-14.6,15.6-26.6,32.8-35.4,52.3
			c-6.6,14.6-11.3,29.7-13.7,45.4c-1.3,8.6-2.1,17.3-2.6,25.9c-1,19.8,1.7,39.1,7.2,58.2c3,10.2,6.9,20.3,11.7,29.8
			c6.6,13.2,14.7,25.5,23.8,37.1c2.7,3.3,5.7,6.3,8.6,9.3C193.5,507.7,193.7,508.3,194.1,508.9z"/>
		<path class="st2" d="M482,505.6c-0.6,0.6-1.2,1.2-1.5,1.9c-6.9,10.8-14.6,21.2-23.4,30.5c-6.3,6.6-12.8,13.3-19.7,19.2
			c-6.3,5.4-13.2,10.1-20.1,14.4c-7.9,4.9-16.1,9.6-24.4,13.8c-16.7,8.4-34.4,14-52.8,17.3c-6.9,1.2-13.8,2-20.7,2.4
			c-7.9,0.5-15.9,0.5-23.9,0.6c-0.6,0-1.1-0.3-1.6-0.4c1.1,0,1.9-0.1,3-0.1c5.1,0,10.3,0.3,15.4-0.1c7.3-0.5,14.7-1.4,22.1-2.3
			c11.3-1.5,22.3-4.4,33-8c7.9-2.7,15.6-6,23.3-9.4c11.3-5.1,21.9-11.4,32.1-18.6c6.9-4.8,13.5-9.8,19.7-15.5
			c14.1-13.2,26.6-27.8,36.9-43.9c12.3-19.3,21-40.2,26.3-62.6c0.3-1.3,0.6-2.6,0.9-3.9c0.1,0.6,0.3,1.2,0.3,1.8
			c-0.2,1.2-0.4,2.4-0.6,3.6c0,0.2,0,0.3,0,0.4l0,0c-0.1,0.4-0.6,0.9-0.6,1.4c-2.3,9-5.1,17.8-8.6,26.6c-0.4,1.1-0.6,2.1-1.1,3.1
			c-0.2,0.3-0.2,0.4-0.3,0.8c-0.2,0.4-0.4,0.9-0.6,1.4c-0.1,0.3-0.1,0.4-0.3,0.8c-0.3,0.6-0.6,1.3-0.9,1.9c-0.2,0.4-0.4,0.9-0.6,1.3
			c-0.4,1.1-1.1,2.1-1.5,3.2c-1.2,2.4-2.4,4.6-3.6,7.1c-0.6,1.1-1.1,2.1-1.7,3.1c-0.3,0.4-0.4,0.9-0.8,1.4s-0.4,0.9-0.8,1.3
			c-0.1,0.3-0.3,0.6-0.4,0.8c-0.1,0.3-0.3,0.4-0.4,0.8c-0.1,0.3-0.3,0.4-0.4,0.8c-0.1,0.3-0.3,0.4-0.4,0.8c-0.1,0.3-0.3,0.4-0.4,0.8
			c-0.1,0.3-0.3,0.4-0.4,0.8C482.4,505,482.1,505.3,482,505.6z"/>
		<path class="st3" d="M488.3,413.1c1.8,0,3.8-0.2,5.6-0.2c1.2,0,1.5-0.4,1.7-1.5c0.9-6,1.8-12,2.7-18c0.9-5.8,1.8-11.7,2.7-17.6
			c0-0.3,0.6-0.9,1.1-0.9c1.3-0.2,2.7-0.2,4.1,0c1.2,0.1,1.5-0.3,1.6-1.5c0.4-2.9,0.9-5.9,1.4-8.7c0-0.3,0.1-0.6,0.3-1.1
			c0.9,0,1.1,0.6,0.9,1.3c-0.4,3.2-1.1,6.3-1.5,9.4c-0.1,0.9-0.6,1.5-1.5,1.4c-1.2,0-2.3,0-3.4,0c-1.2-0.2-1.6,0.3-1.8,1.5
			c-1.5,9.6-3,19.1-4.5,28.6c-0.3,2.1-0.8,4.2-0.9,6.3c-0.2,1.1-0.6,1.7-1.8,1.5c-1.7,0-3.4,0-5.1,0
			C489.2,414.1,488.7,413.4,488.3,413.1z"/>
		<path class="st3" d="M358.1,413.1c1.8,0,3.6-0.2,5.4,0c1.2,0,1.4-0.4,1.5-1.5c0.9-6.4,1.8-13.1,3.2-19.5c0.3-1.9,1.6-3.6,2.6-5.4
			c3.8-7.1,7.5-14.3,11.4-21.3c0.3-0.6,0.6-1.1,1.1-1.6c1.4,0.1,0.9,0.9,0.6,1.6c-3,5.6-5.9,10.9-8.9,16.5c-1.6,3.2-3.6,6.2-4.9,9.4
			c-0.9,1.9-1.1,4.2-1.3,6.3c-0.9,4.9-1.7,9.9-2.4,15c-0.1,1.2-0.6,1.5-1.8,1.5c-1.6,0-3.3,0-4.9,0C359,414,358.5,413.4,358.1,413.1
			z"/>
		<path class="st3" d="M404.4,413.1c2.4,0,4.9-0.2,7.3-0.2c1.1,0,1.4-0.3,1.5-1.3c1.8-11.7,3.6-23.4,5.4-35.1
			c0.6-4.2,1.3-8.4,1.9-12.6c1.5,0.1,0.9,1.3,0.9,2.1c-0.6,4.7-1.3,9.2-2.1,13.8c-1.7,10.9-3.3,21.8-4.9,32.7
			c-0.2,1.4-0.8,1.7-1.9,1.7c-2.1,0-4.2,0-6.3,0C405.6,414.1,405,413.4,404.4,413.1z"/>
		<path class="st3" d="M419.3,413.1c1.8,0,3.8-0.2,5.6-0.2c1.2,0,1.5-0.4,1.7-1.5c0.9-6,1.8-12,2.7-18c1.5-9.9,3.1-19.8,4.6-29.8
			c0.9,0.4,1.1,1.1,0.9,1.9c-2.4,15.6-4.9,31.2-7.4,46.9c-0.1,1.1-0.6,1.6-1.8,1.5c-1.6,0-3.4,0-5.1,0
			C420.2,414.1,419.7,413.4,419.3,413.1z"/>
		<path class="st3" d="M471,413.1c1.9,0,3.9-0.2,5.9,0c0.8,0,1.2-0.3,1.2-1.1c1.5-9.8,2.8-19.5,4.6-29.1c0.4-2.3,2.3-4.3,3.8-6.1
			c1.5-1.7,3.9-1.5,6-1.5c0.9,0,0.8,0.4,0.6,1.1c-3.8-0.2-6.3,1.1-8.3,4.6c-1.7,3-1.7,6.3-2.3,9.4c-1.2,7.2-2.4,14.6-3.4,21.8
			c-0.3,1.5-0.9,2.1-2.4,2.1c-1.6-0.2-3.1,0-4.8-0.2C471.8,414,471.5,413.4,471,413.1z"/>
		<path class="st3" d="M442.2,401.5c-1.5-0.6-1.6-1.9-1.5-3.3c0.4-6.9,1.5-13.7,3.3-20.3c0.2-0.6,0.3-1.1,0.4-1.5
			c0.3-0.9,1.1-1.4,2.1-1.4c3,0,5.8,0,8.8,0c1.4,0,1.9-0.3,2.1-1.8c0.3-3.1,1.1-6.4,1.5-9.6c0.9,0.1,1.2,0.6,1.1,1.5
			c-0.6,3.1-1.1,6.3-1.5,9.4c-0.2,1.1-0.8,1.5-1.8,1.5c-3,0-5.9,0-8.9,0c-1.3,0-2.1,0.4-2.6,1.8c-2.1,7.1-3.1,14.1-3.4,21.4
			C441.9,400,442.2,400.8,442.2,401.5z"/>
		<path class="st3" d="M197.6,413.1c1.7,0,3.5-0.2,5.1-0.2c1.1,0,1.3-0.3,1.3-1.3c0-4.5,0-9.2,0-13.7c0-10.6,0-21.3,0-31.8
			c0-0.8,0-1.5,0-2.3c1.2,0.2,1.1,1.1,1.1,1.8c0,5.4,0,10.9,0,16.4c0,10.1,0,19.9,0,30c0,2.1,0,2.1-2.3,2.1c-1.2,0-2.6,0.2-3.8,0
			C198.6,414,198,413.4,197.6,413.1z"/>
		<path class="st3" d="M163.1,401.5c-1.3-0.4-1.5-1.7-1.3-2.7c0.3-3.6,0.5-7.2,1.1-10.8c0.6-3.4,1.3-6.9,2.3-10.4
			c0.6-2.3,1-2.6,3.3-2.6c2.8,0,5.7,0,8.6,0c1,0,1.3-0.3,1.5-1.3c0.4-3.3,1-6.8,1.7-10.1c0.9,0.1,1.2,0.6,1,1.5
			c-0.6,3.1-1,6.3-1.5,9.4c-0.2,1.1-0.6,1.5-1.8,1.5c-2.8,0-5.7,0-8.6,0c-1.8,0-2.7,0.6-3,2.3c-1,5.7-2.1,11.4-3,17.3
			C162.6,397.5,162.9,399.6,163.1,401.5z"/>
		<path class="st3" d="M240.6,380.2c0,0.3,0.2,0.6,0.2,0.8c0.2-0.2,0.4-0.3,0.6-0.4c0.9-0.9,1.8-1.9,2.7-2.9
			c0.3-0.3,0.9-0.3,1.5-0.4c0,0.4-0.2,0.9-0.2,1.4c-2.3,1.2-3.8,2.8-4.2,5.4c-1.5,9.3-2.8,18.6-4.3,27.9c-0.2,1.5-0.8,2.3-2.4,2.1
			c-1.5-0.1-3,0-4.5-0.1c-0.5,0-1.1-0.6-1.5-1.1c1.9,0,3.9-0.2,5.8-0.2c0.8,0,1.1-0.1,1.2-1.1c1.1-7.1,2.1-14.1,3.3-21
			C239.3,387.3,240,383.8,240.6,380.2z"/>
		<path class="st3" d="M292.8,413.1c3.1,0,6.1-0.2,9.3-0.2c6.4,0,9-1.9,10.8-8.1c1.3-4.7,2.4-9.3,1.9-14.1c-0.2-1.8-0.9-3.4-1.5-5.3
			c2.3,1.7,2.6,4.1,2.7,6.4c0.1,5.6-0.9,10.8-2.9,16.1c-1.5,4.2-4.6,6.2-9.1,6.2c-3.3,0-6.6,0-9.9,0
			C293.7,414.1,293.3,413.4,292.8,413.1z"/>
		<path class="st3" d="M435.8,412.9c3.4,1.4,7.1,1.4,10.8,0.9c1.8-0.2,3.6-0.6,5.3-1.1c0.3-0.2,0.8-0.6,0.9-1.1
			c1.1-5.9,1.9-11.9,3-17.7c0.4-2.6,2.3-3.9,4.5-5.1c0.1-0.1,0.3,0,0.6,0c0,0.4-0.1,0.9-0.1,1.4c-2.3,1.3-3.6,3.1-3.9,5.8
			c-0.8,5.4-1.8,10.8-2.7,16.2c-0.1,1.1-0.6,1.7-1.8,1.7c-1.8,0.1-3.4,0.9-5.1,0.9c-2.9,0-5.7-0.1-8.6-0.4
			C437.4,414.4,436.7,413.5,435.8,412.9z"/>
		<path class="st3" d="M388.2,413.1c1.8,0,3.8-0.2,5.6-0.2c0.9,0,1.4-0.3,1.5-1.2c0.9-6.1,1.9-12.3,2.9-18.4
			c0.8-4.8,1.5-9.4,2.4-14.3c0.2,1.7,0.3,3.4,0.4,5.1c-0.6,2.8-1.2,5.8-1.6,8.8c-1.1,6.6-2.1,13.1-3,19.7c-0.2,1.1-0.6,1.6-1.8,1.5
			c-1.7,0-3.4,0-5.1,0C389.1,414.1,388.7,413.4,388.2,413.1z"/>
		<path class="st3" d="M207,413.1c1.8,0,3.6-0.2,5.4-0.2c1,0,1.5-0.3,1.7-1.3c0.8-4.8,1.5-9.6,2.3-14.4c0.4-3,0.9-6.1,1.5-9.1
			c0.4-3,0.9-6,1.5-9c0.2,1.8,0.3,3.6,0.4,5.4c-0.6,2.9-1.2,5.7-1.7,8.6c-1,6.6-2.1,13.1-3,19.7c-0.2,1.1-0.6,1.6-1.8,1.5
			c-1.7,0-3.5,0-5.1,0C207.9,414.1,207.5,413.4,207,413.1z"/>
		<path class="st3" d="M156.5,412.9c3.4,1.4,7,1.4,10.8,0.9c1.8-0.2,3.5-0.6,5.3-1.1c0.3-0.2,0.8-0.6,0.9-1.1
			c0.9-5.4,1.8-10.7,2.7-16.1c0.3-1.7,0.6-3.2,0.9-4.8c1.2,0,1,0.9,0.9,1.6c-0.9,5.6-1.8,11.1-2.7,16.7c-0.8,4.8-0.9,4.6-5.5,5.6
			c-3.6,0.6-7.2,0.6-10.7-0.3C158,414.3,157.4,413.5,156.5,412.9z"/>
		<path class="st3" d="M457.8,413.1c1.9,0,3.8-0.2,5.7-0.2c0.9,0,1.3-0.3,1.5-1.2c1.1-7.3,2.3-14.7,3.3-21.9
			c0.1-1.1,0.6-1.7,1.8-1.5c1.1,0.1,2.3,0,3.3,0c0.9,0,0.8,0.4,0.6,1.1c-0.8,0-1.3,0-2.1,0c-2.3,0-2.3,0-2.6,2.3
			c-1.1,7.1-2.3,13.9-3.3,21c-0.2,1.2-0.6,1.6-1.8,1.6c-1.7,0-3.4,0-5.1,0C458.7,414.1,458.3,413.4,457.8,413.1z"/>
		<path class="st4" d="M329.4,413.1c0.3,0,0.6,0,0.8-0.2c0.4,0.2,0.9,0.4,1.3,0.4c4.1,0,8.3,0,12.3,0c3.4,0,5.9-1.5,7.5-4.5
			c1.8-3.3,2.7-6.9,2.9-10.6c0.1-1.9-0.4-3.9-0.6-6c-0.4-1.1-0.9-2.1-1.3-3.3c0.4-0.6,1.1-1.4,1.5-1.9c2.3-2.9,3.1-6.3,4.1-9.8
			c0.1,0.6,0.3,1.1,0.3,1.6c-0.3,0.9-0.6,1.9-1.1,2.9c-1.1,2.1-2.4,4.2-3.4,6.4c-0.2,0.4-0.4,1.1-0.3,1.3c2.3,3.3,1.9,6.8,1.5,10.4
			c-0.6,4.1-1.7,7.9-4.4,11.3c-1.6,2.1-3.9,2.7-6.3,2.8c-4.3,0.2-8.8,0-13.2,0C330,414.3,329.4,414.3,329.4,413.1z"/>
		<path class="st4" d="M282.3,413.1c0.3,0,0.8,0,1.1,0c0.4,0.1,0.8,0.4,1.2,0.6c1.2,0,2.4,0,3.6,0c1.2,0.2,1.5-0.4,1.4-1.5
			c-0.8-4.1-1.4-8.3-2.1-12.3c0.2-0.6,0-1.3,0.3-1.8c3.8-4.9,4.8-10.8,5.9-16.8c0.9-1.3,1.8-2.6,2.7-3.9c0.1,0.1,0.3,0.1,0.4,0.3
			c-0.2,0.9-0.2,1.9-0.3,2.8c-0.8,1.1-1.9,1.9-2.4,3.2c-1.2,3.6-2.3,7.3-3.3,10.9c-0.1,0.3-0.3,0.8-0.4,0.9
			c-2.6,2.6-1.8,5.6-1.2,8.7c0.4,2.7,0.9,5.3,1.4,7.9c0.3,1.9,0.1,2.3-1.9,2.3c-1.2,0-2.6,0-3.8,0
			C283.5,414.4,282.8,414.1,282.3,413.1z"/>
		<path class="st3" d="M304.4,382.9c-1.5-1.1-1.8-2.4-1.1-5.1c0.4-1.8,1.8-2.7,3.6-2.9c3,0,6-0.1,9,0c1.4,0,1.7-0.4,1.8-1.6
			c0.3-3.2,0.8-6.4,1.2-9.6c0.3,0.4,0.9,0.9,0.9,1.4c-0.3,3.3-0.8,6.6-1.2,9.8c0,0.4-1.1,1.1-1.5,1.1c-2.6,0.1-5.3,0.1-7.8,0
			c-3.8-0.3-5.9,1.6-4.9,6.3C304.2,382.6,304.2,382.8,304.4,382.9z"/>
		<path class="st3" d="M254.3,382.6c-1.1,0.2-1.3-0.1-1.1-1.2c0.4-1.6,0.9-3.3,1.2-4.9c0.3-1.1,1.1-1.5,2.1-1.5c3,0,6,0,9,0
			c0.9,0,1.3-0.3,1.5-1.2c0.4-3.4,1.1-6.8,1.6-10.2c0.9,0.2,1.2,0.6,1.1,1.5c-0.6,3.2-1.1,6.2-1.5,9.3c-0.1,1.4-0.8,1.8-2.1,1.7
			c-2.9-0.2-5.6,0-8.4,0c-1.2,0-1.9,0.4-2.2,1.5C255,379.3,254.7,381,254.3,382.6z"/>
		<path class="st3" d="M178.8,413.1c1.8,0,3.5-0.2,5.3-0.2c1.3,0,2.1-0.3,2.6-1.8c0.6-2.6,1.5-5.1,2.3-7.8c0.2-0.8,0.6-1.1,1.5-1.1
			c1.9,0,3.8,0,5.7,0c0.9,0,1.3,0.3,1.1,1.2c-1.8,0-3.8,0-5.6,0c-0.9,0-1.5,0.3-1.7,1.2c-0.8,2.6-1.5,5.1-2.3,7.8
			c-0.3,1.2-0.9,1.7-2.1,1.5c-1.8-0.1-3.4,0-5.3,0C179.7,414.1,179.3,413.4,178.8,413.1z"/>
		<path class="st3" d="M246,413.2c4.8,1.2,9.8,1.3,14.6-0.2c0.4-0.1,0.9-0.8,1.1-1.2c0.6-3.4,1.2-6.9,1.7-10.3
			c0.9-0.2,1.2,0.3,1.1,1.2c-0.4,3.3-0.9,6.8-1.7,10.1c-0.1,0.6-0.8,1.3-1.3,1.5c-4.5,1.3-9,1.3-13.5,0.3
			C247.1,414.4,246.6,413.7,246,413.2z"/>
		<path class="st3" d="M222,402.3c0.9,0,1.3-0.4,1.7-1.4c2.7-6.8,5.5-13.3,8.4-19.9c0.2-0.3,0.3-0.6,0.8-0.8
			c-0.3,1.8-0.6,3.6-1.1,5.4c-1.7,3.8-3.3,7.5-4.9,11.4c-0.8,1.8-1.5,3.6-2.3,5.4c-0.2,0.4-0.9,0.9-1.3,0.9
			C222.9,403.3,222.5,402.6,222,402.3z"/>
		<path class="st3" d="M266.1,413.1c1.8,0,3.8-0.2,5.6-0.2c0.9,0,1.2-0.3,1.3-1.2c0.6-3.9,1.2-7.8,1.8-11.8c0.2-0.9,0.6-1.2,1.5-1.2
			s1.8-0.2,2.7,0c0.4,0,0.6,0.6,1.1,1.1c-4.6,0-3.6-0.4-4.3,3.8c-0.4,3-1.1,6-1.4,9c-0.1,1.1-0.6,1.5-1.6,1.5c-1.7,0-3.2,0.1-4.8,0
			C267,414.1,266.6,413.4,266.1,413.1z"/>
		<path class="st3" d="M251.9,400.9c-0.4-0.8-1.3-1.6-1.3-2.4c0-1.8,0.3-3.8,0.6-5.6c0-0.3,0.8-0.8,1.2-0.8c2.3,0,4.6-0.2,6.9,0
			c1.5,0.1,1.8-0.6,1.9-1.8c0.3-2.4,0.8-4.7,1.2-7.1c0.3,0.4,0.9,0.9,0.9,1.3c-0.3,2.4-0.8,4.8-1.1,7.2c-0.2,1.1-0.6,1.4-1.7,1.4
			c-2.3,0-4.6,0-6.9,0c-0.6,0-1.5,0.6-1.5,1.1C252,396.4,252,398.7,251.9,400.9z"/>
		<path class="st3" d="M409.7,387.3c-0.2,1.3-0.4,2.7-0.6,3.9H409c-0.2-1.1-0.3-2.3-0.4-3.3c-0.6-6.4-1.2-12.9-1.9-19.5
			c-0.2-1.3-0.8-2.6-1.2-3.8c1.5,0.9,2.1,2.4,2.3,4.1c0.6,5.7,1.2,11.3,1.8,16.9C409.2,386.2,409.5,386.7,409.7,387.3z"/>
		<path class="st3" d="M366.5,381c-0.3,0.4-0.4,0.9-0.9,1.6c-1.1-6.6-2.1-12.6-3-18.8c0.4,0.6,1.1,1.1,1.2,1.7
			c0.9,4.6,1.6,9.3,2.4,14.1C366,379.9,366.3,380.4,366.5,381z"/>
		<path class="st3" d="M471.6,377.7c-0.8,0.2-1.4,0.2-1.2-0.9c0.8-4.2,1.3-8.6,2.1-12.8c1.1,0.1,1.1,0.9,0.9,1.6
			c-0.6,3.4-1.1,6.9-1.5,10.4C471.6,376.5,471.6,377.1,471.6,377.7z"/>
		<path class="st3" d="M243,373c-0.8,2.4-1.7,4.8-2.4,7.2c0.6-3.9,1.1-7.8,1.7-11.7c0.2-1.5,0.4-3,0.8-4.5c1.2,0.1,0.9,1.1,0.9,1.8
			C243.6,368.2,243.3,370.6,243,373z"/>
		<path class="st4" d="M496.1,478.2c0.3-1.1,0.6-2.1,1.1-3.1c3.4-8.7,6.1-17.6,8.6-26.6c0.1-0.4,0.4-0.9,0.6-1.4
			c-0.3,1.5-0.6,2.9-0.9,4.4c0,0.1-0.2,0.4-0.2,0.6c-0.1,0.6-0.3,1.2-0.4,1.8c-0.1,0.4-0.3,1.1-0.4,1.5c-0.4,1.5-0.9,3-1.3,4.5
			c-0.2,0.4-0.3,1.1-0.4,1.5c-0.8,2.3-1.4,4.4-2.1,6.6c-0.1,0.1-0.1,0.4-0.3,0.6c-1.1,3-2.3,6-3.4,8.9
			C496.5,477.7,496.2,477.9,496.1,478.2z"/>
		<path class="st3" d="M227.4,377.5c-0.3,0.6-0.4,1.2-0.8,1.9c-0.2,0-0.2,0-0.3,0c-0.2-1.5-0.3-3-0.5-4.5c-0.3-2.3-0.3-4.5-0.8-6.8
			c-0.2-1.2-0.8-2.3-1.2-3.3c1.9,1.3,2.3,3.4,2.4,5.4C226.8,372.6,227.1,375.1,227.4,377.5z"/>
		<path class="st3" d="M486.3,370.3c-0.9,2.6-1.7,4.9-2.6,7.5c-0.2,0-0.2,0-0.3,0c0.8-4.7,1.5-9.3,2.3-13.9c1.3,0.1,0.9,1.1,0.9,1.8
			C486.5,367.3,486.3,368.8,486.3,370.3z"/>
		<path class="st3" d="M294.6,375c-0.4,1.6-0.9,3.3-1.5,4.9c-0.2-4.9,0.6-9.9-2.6-14.3c2.1,1.6,2.8,4.1,3.4,6.4
			C294.3,373,294.5,374.1,294.6,375z"/>
		<path class="st3" d="M299,392.8c2.1,1.6,4.7,1.5,7.2,1.5c0.8,0,1.5,0,1.7,1.1c-1.9-0.2-4.1,0-5.9-0.4
			C300.8,394.6,299.9,393.6,299,392.8z"/>
		<path class="st3" d="M331.2,378.3c0.6-1.1,1.2-2.1,1.9-3.2c0.3-0.4,0.9-0.6,1.5-0.9c0,0.6,0,1.1,0,1.6c-0.8,0.9-1.5,1.8-2.3,2.7
			c-0.3,0.3-0.6,0.4-0.9,0.6C331.4,379,331.2,378.6,331.2,378.3z"/>
		<path class="st4" d="M506.3,446.5c0.2-1.2,0.4-2.4,0.6-3.6c0-0.6-0.2-1.2-0.3-1.8c0.1-1.1,0.4-2.1,0.6-3.3
			c0.4-0.1,0.9-0.3,1.4-0.3c0,0.2,0,0.4,0,0.6c-0.2,0.3-0.2,0.6-0.3,0.9c0,0.3-0.2,0.6-0.2,0.9c0,0.1-0.1,0.4-0.1,0.6
			c-0.3,1.7-0.8,3.2-1.1,4.8c0,0.2-0.2,0.4-0.2,0.6c0,0.1,0,0.3-0.1,0.6C506.4,446.5,506.3,446.5,506.3,446.5z"/>
		<path class="st1" d="M200.4,514.9c-1.8-1.7-3.6-3.4-5.4-5.1c0.6,0.3,1.2,0.6,1.7,1.1C197.9,512.2,199.1,513.6,200.4,514.9z"/>
		<path class="st1" d="M508.5,437.5c-0.4,0.1-0.9,0.3-1.3,0.3c-0.2-0.4-0.2-0.8-0.3-1.2c0-0.2,0-0.4,0.1-0.6
			c0.4-0.3,0.9-0.6,1.5-0.9c0.2,0.4,0.3,0.9,0.3,1.3C509,436.9,508.7,437.2,508.5,437.5z"/>
		<path class="st4" d="M159.9,547.3c1.5,1.3,3,2.8,4.5,4.2C162.9,550.2,161.4,548.7,159.9,547.3z"/>
		<path class="st4" d="M491.9,487.5c0.4-1.1,1.1-2.1,1.5-3.2C492.9,485.4,492.3,486.4,491.9,487.5z"/>
		<path class="st4" d="M486.8,497.7c0.6-1.1,1.1-2.1,1.7-3.1C487.8,495.6,487.2,496.6,486.8,497.7z"/>
		<path class="st4" d="M149.6,536.8c0.8,0.8,1.5,1.5,2.1,2.4C151.1,538.5,150.3,537.7,149.6,536.8z"/>
		<path class="st1" d="M203.7,517.9c-0.8-0.8-1.7-1.3-2.4-2.1C202.1,516.6,202.8,517.2,203.7,517.9z"/>
		<path class="st1" d="M206.1,520c-0.6-0.4-1.2-1-1.8-1.5C204.9,519,205.5,519.6,206.1,520z"/>
		<path class="st4" d="M494,483c0.3-0.6,0.6-1.4,0.9-1.9C494.6,481.6,494.3,482.2,494,483z"/>
		<path class="st4" d="M495.2,480.3c0.1-0.4,0.4-0.9,0.6-1.4C495.6,479.4,495.3,479.8,495.2,480.3z"/>
		<path class="st4" d="M485.3,500.4c0.3-0.4,0.4-0.9,0.8-1.3C485.7,499.5,485.4,499.9,485.3,500.4z"/>
		<path class="st1" d="M207.8,521.5c-0.5-0.3-0.8-0.6-1.2-0.9C207,520.9,207.5,521.2,207.8,521.5z"/>
		<path class="st4" d="M147,534.1c0.3,0.3,0.6,0.6,0.9,0.9C147.6,534.7,147.3,534.4,147,534.1z"/>
		<path class="st1" d="M504.3,455.2c0.1-0.4,0.3-1.1,0.4-1.5C504.6,454.2,504.5,454.8,504.3,455.2z"/>
		<path class="st1" d="M502.5,461.2c0.2-0.4,0.3-1.1,0.4-1.5C502.8,460.2,502.7,460.8,502.5,461.2z"/>
		<path class="st1" d="M508.2,439c0.2-0.3,0.2-0.6,0.3-0.9C508.4,438.4,508.2,438.7,508.2,439z"/>
		<path class="st1" d="M211.1,524.2c-0.3-0.2-0.6-0.5-0.9-0.6C210.6,523.8,210.9,524.1,211.1,524.2z"/>
		<path class="st4" d="M484.4,501.9c0.1-0.3,0.3-0.4,0.4-0.8C484.7,501.4,484.5,501.6,484.4,501.9z"/>
		<path class="st1" d="M500.1,468.4c0.1-0.1,0.1-0.4,0.3-0.6C500.3,468,500.1,468.3,500.1,468.4z"/>
		<path class="st1" d="M505.2,451.9c0-0.1,0.2-0.4,0.2-0.6C505.4,451.6,505.2,451.8,505.2,451.9z"/>
		<path class="st1" d="M506.3,446.5c0.2,0,0.3,0,0.4,0c-0.1,0.1-0.1,0.3-0.3,0.6C506.3,446.8,506.3,446.7,506.3,446.5z"/>
		<path class="st1" d="M209.7,523c-0.2-0.1-0.5-0.3-0.6-0.6C209.3,522.7,209.4,522.9,209.7,523z"/>
		<path class="st4" d="M483.5,503.4c0.2-0.3,0.3-0.4,0.4-0.8C483.8,502.9,483.6,503.1,483.5,503.4z"/>
		<path class="st1" d="M212.7,525.4c-0.3-0.2-0.5-0.3-0.8-0.6C212.1,525.1,212.4,525.3,212.7,525.4z"/>
		<path class="st1" d="M215.4,527.5c-0.3-0.1-0.4-0.3-0.8-0.6C214.8,527.2,215.1,527.4,215.4,527.5z"/>
		<path class="st1" d="M216.6,528.4c-0.3-0.2-0.5-0.3-0.8-0.4C216,528.1,216.3,528.3,216.6,528.4z"/>
		<path class="st1" d="M217.8,529.3c-0.3-0.2-0.4-0.3-0.8-0.5C217.2,529,217.5,529.2,217.8,529.3z"/>
		<path class="st1" d="M506.7,445.9c0-0.1,0.2-0.4,0.2-0.6C506.9,445.6,506.7,445.8,506.7,445.9z"/>
		<path class="st1" d="M507.9,440.5c0-0.2,0.1-0.4,0.1-0.6C508.1,440.2,507.9,440.4,507.9,440.5z"/>
		<path class="st4" d="M482.6,504.9c0.1-0.3,0.3-0.4,0.4-0.8C482.9,504.4,482.7,504.6,482.6,504.9z"/>
		<path class="st3" d="M245.7,412.9c0.2,0.2,0.2,0.2,0.3,0.3C245.9,413.1,245.7,413.1,245.7,412.9z"/>
		<path class="st3" d="M290.6,365.5c0-0.2-0.2-0.2-0.2-0.2C290.6,365.4,290.6,365.4,290.6,365.5z"/>
		<path class="st3" d="M313.4,385.3L313.4,385.3C313.2,385.2,313.4,385.3,313.4,385.3z"/>
		<path class="st5" d="M291.6,192.1c0.3,1.2-0.8,0.9-1.4,1.1c-4.5,1.2-9,2.1-13.5,3.4c-14.1,4.1-27.4,9.9-40.2,17.1
			c-10.3,6-20.3,12.9-29.3,20.8c-8.1,7.2-15.6,14.8-22.7,23.1c-10.2,12-18.8,25.2-25.7,39.3c-8,16.5-13.3,33.8-16.1,51.9
			c-1.8,12.4-2.7,24.8-2.3,37.4c0.3,10.2,1.5,20.4,3.6,30.4c0,0.3,0,0.6,0,1.1c-0.4-2.1-1.2-4.1-1.5-6.2c-0.9-7.1-1.8-14.1-2.4-21.1
			c-0.4-4.2-0.6-8.6-0.4-12.9c0.2-9.3,0.9-18.6,2.3-27.9c1.7-12.2,4.7-23.9,8.7-35.4c4.5-12.8,10.5-24.8,17.7-36.3
			c6-9.6,13-18.4,20.5-27c12.6-14.1,26.8-26.1,43.1-35.8c12-7.3,24.6-13.3,38.1-17.6c6.8-2.1,13.8-3.8,20.6-5.7
			C291,192.1,291.3,192.1,291.6,192.1z"/>
		<path class="st5" d="M144.5,418.2c0.6,2.7,1.3,5.3,1.9,7.9C145.8,423.4,145.1,420.9,144.5,418.2z"/>
		<path class="st2" d="M292.8,605.4c-1.2-0.1-2.3-0.1-3.4-0.3C290.4,605.2,291.6,605.2,292.8,605.4z"/>
		<path class="st5" d="M146.6,426.6c0.3,1.2,0.8,2.6,1.1,3.8C147.3,429.1,146.9,427.8,146.6,426.6z"/>
		<path class="st2" d="M288.3,605.1c-1.1-0.1-2.1-0.1-3.2-0.3C286.2,604.9,287.3,604.9,288.3,605.1z"/>
		<path class="st5" d="M147.8,430.8c0.3,0.9,0.6,1.6,0.8,2.6C148.2,432.4,148.1,431.7,147.8,430.8z"/>
		<path class="st5" d="M149.3,435.6c0.3,0.9,0.6,1.8,0.9,2.6C149.9,437.4,149.6,436.5,149.3,435.6z"/>
		<path class="st2" d="M283.8,604.8c-0.6-0.1-1.1-0.1-1.7-0.3C282.6,604.6,283.2,604.6,283.8,604.8z"/>
		<path class="st2" d="M281.1,604.5c-0.4,0-0.9-0.1-1.4-0.1C280.2,604.3,280.7,604.3,281.1,604.5z"/>
		<path class="st2" d="M278.7,604.2c-0.4-0.1-0.9-0.1-1.3-0.3C277.8,604,278.3,604,278.7,604.2z"/>
		<path class="st2" d="M276.6,603.9c-0.4,0-0.9-0.1-1.4-0.1C275.7,603.7,276.2,603.7,276.6,603.9z"/>
		<path class="st2" d="M274.2,603.6c-0.3,0-0.8-0.1-1.1-0.1C273.5,603.4,273.8,603.4,274.2,603.6z"/>
		<path class="st2" d="M270.3,603c-0.3,0-0.8-0.1-1.1-0.1C269.6,602.8,269.9,602.8,270.3,603z"/>
		<path class="st2" d="M272.1,603.3c-0.3-0.1-0.8-0.1-1.1-0.3C271.4,603.1,271.7,603.1,272.1,603.3z"/>
		<path class="st2" d="M268.5,602.7c-0.3,0-0.8-0.1-1.1-0.1C267.8,602.5,268.1,602.5,268.5,602.7z"/>
		<path class="st2" d="M266.7,602.4c-0.3,0-0.8-0.1-1.1-0.1C266,602.2,266.3,602.2,266.7,602.4z"/>
		<path class="st2" d="M260.4,601.2c-0.3,0-0.4-0.1-0.8-0.1C259.8,601,260.1,601,260.4,601.2z"/>
		<path class="st2" d="M261.9,601.5c-0.3,0-0.4-0.1-0.8-0.1C261.3,601.3,261.6,601.3,261.9,601.5z"/>
		<path class="st2" d="M263.4,601.8c-0.3,0-0.4-0.1-0.8-0.1C262.8,601.6,263.1,601.6,263.4,601.8z"/>
		<path class="st2" d="M264.9,602.1c-0.3,0-0.4-0.1-0.8-0.1C264.3,601.9,264.6,601.9,264.9,602.1z"/>
		<path class="st2" d="M257.7,600.6c-0.3,0-0.4-0.1-0.8-0.1C257.1,600.4,257.4,600.4,257.7,600.6z"/>
		<path class="st3" d="M284.9,373.3c-0.4,0-0.9,0-1.4,0c-4.1,0-3.3-0.4-3.9,3.3c-0.6,4.1-1.2,7.9-1.8,12c-0.8,0.1-1.2,0.1-1.1-0.9
			c0.8-4.8,1.5-9.4,2.3-14.3c0.1-0.8,0.4-1.1,1.2-1.1c1.2,0,2.3,0,3.4,0C284,372.4,284.4,373,284.9,373.3z"/>
		<path class="st2" d="M293.6,381.1c-0.9,6-2.1,11.9-5.9,16.8c-0.3,0.4-0.1,1.2-0.3,1.8c-0.1,0-0.1,0-0.3,0
			c-0.6-1.3-0.1-2.4,0.8-3.4c2.7-3.8,3.9-8.3,4.7-12.8c0.1-0.8,0.3-1.5,0.4-2.4h0.1h0.2C293.1,381.1,293.4,381.1,293.6,381.1z"/>
		<path class="st3" d="M287.1,399.7c0.1,0,0.1,0,0.3,0c0.8,4.1,1.3,8.3,2.1,12.3c0.2,1.1-0.1,1.6-1.3,1.5c-1.2-0.2-2.4,0-3.6,0
			c-0.4,0-0.8-0.3-1.2-0.6c1.5,0,2.9-0.1,4.4,0c1.2,0,1.5-0.1,1.3-1.5C288.3,407.5,287.7,403.6,287.1,399.7z"/>
		<path class="st3" d="M293,381.1L293,381.1h-0.1c0-0.1,0-0.3,0-0.4C293,380.8,293,381,293,381.1z"/>
		<path class="st5" d="M353.6,392.5c0.3,1.9,0.8,3.9,0.6,6c-0.3,3.8-1.1,7.2-2.8,10.6c-1.7,3-4.1,4.7-7.5,4.5c-4.1,0-8.3,0-12.3,0
			c-0.4,0-0.9-0.3-1.4-0.4c3.9,0,7.7-0.1,11.6,0c5.6,0.2,7.8-1.5,10.1-7.1C353.4,401.7,354.2,397.2,353.6,392.5z"/>
		<path class="st3" d="M349.2,373.5c-1.5,0-2.8,0-4.3,0c-1.1,0-1.4,0.4-1.5,1.3c-0.4,3-0.9,5.9-1.4,8.9c-0.8,0.1-1.3,0.1-1.1-1.1
			c0.4-3,0.9-6,1.4-9c0.1-0.9,0.4-1.4,1.5-1.4c1.3,0.2,2.6-0.1,3.9,0C348.3,372.6,348.8,373.2,349.2,373.5z"/>
		<path class="st3" d="M346.2,393.9c-5.4-0.9-5.6-0.8-6.4,4.4c-0.3,1.9-0.6,3.9-0.9,5.8c-0.9,0.2-1.2-0.1-1.1-1.2
			c0.4-3.1,1.1-6.4,1.5-9.6c0-0.3,0.3-0.8,0.4-0.8c1.8,0,3.6,0.1,5.4,0.3C345.6,393,345.9,393.6,346.2,393.9z"/>
		<path class="st3" d="M357.8,377.5c-0.9,3.4-1.8,6.9-4.1,9.8c-0.4,0.6-1.1,1.3-1.5,1.9c-0.6-0.4-0.9-0.8-0.3-1.5
			c3-3,4.2-6.8,4.9-10.8c0-0.3,0.2-0.8,0.2-1.1c0-0.2,0.1-0.3,0.3-0.8C357.6,376,357.8,376.8,357.8,377.5z"/>
		<path class="st3" d="M197.1,379.6c-1.3,4.7-2.7,9.2-4.1,13.8c-0.8,0.2-1.3,0-1-0.9c1.7-5.6,3.3-11.1,5.1-16.7
			C197.1,377.1,197.1,378.3,197.1,379.6z"/>
	</g>
</g>
<path class="st6" d="M295.4,191.4c-0.6,0-1.4-0.2-2.3-0.2c-1.4,0-2.4,0.2-2.7,0.2c-5.3,0.6-8.6,0.4-16.4,1.7
	c-5.3,0.8-9.1,1.7-15,2.8c-2.8,0.6-4.9,1.2-5.7,1.3c-1.9,0.4-3.4,0.9-4.8,1.2c-2.3,0.8-5.4,1.7-9.2,3c-3,1.1-9.6,3.3-16.5,6.3
	c-2,0.9-10.8,4.7-22.2,11.4c-19.9,11.7-33.3,23.7-36.8,26.8c-3.3,3-10.9,10.2-19.7,20.7c-14.8,17.8-23.3,33.9-26,39.1
	c-4,7.9-14.3,29.4-19.2,59.3c-6.9,41.6,0.5,73.8,2.7,82.8c1.2,4.7,5.7,22.2,16.3,43.2c4.2,8.4,19.2,36.6,45.9,60.8
	c11.1,10.1,22.7,17.8,26.4,20.4c7.9,5.4,14.4,8.9,16.7,10c6.3,3.3,11.1,5.6,12.8,6.3c1,0.4,10,4.5,20.8,7.8
	c21.6,6.8,42.4,8.6,44.8,8.7c28.6,2.4,51.1-1.8,60.9-4.1c3.3-0.8,10.5-2.4,19.5-5.4c3.4-1.2,17.9-6,33.6-14.4
	c2.4-1.4,7.8-4.2,14.6-8.5c1.9-1.2,3.4-2.3,6.4-4.3c6.1-4.2,9.3-6.3,12.8-9c0.9-0.8,4.2-3.3,9.4-8.1c4.3-4,11.7-10.8,19.9-20.7
	c11.1-13.1,18-24.4,20.6-28.9c2.8-4.9,7.6-13.5,12.3-24.9c1.5-3.4,2.7-6.8,3.8-9.6c0.9-2.6,2.6-7.4,4.3-14.1
	c1.8-6.4,4.4-16.6,3.8-16.8c-0.4-0.1-2.6,6.8-6.9,16.7c-0.6,1.3-4.1,9.1-9.2,17.8c-7.5,12.8-14.8,21.6-19.9,27.4
	c-4.2,4.8-12,14-23.6,23.6c-6.1,5.1-22.8,18.3-47.8,28.8c-22.2,9.3-41.1,12.2-49.9,13.3c-27.2,3.3-49.2,0-61.9-2.8
	c-23.7-5.1-42.2-13.9-54.6-21.2c-9-5.3-25.8-16-42.8-34.2c-5.3-5.7-15.8-17.6-25.8-34.9c-9.2-15.9-13.8-29.3-15.4-34.1
	c-2.6-7.5-6.8-21.8-8.6-40.5c-0.6-6-1.2-15.9-0.6-28.2c0.5-7.9,1.5-19.5,4.8-33.3c3.8-16.1,8.8-28.1,11.7-34.4
	c4.8-10.5,9.8-18.9,14-25.2c1.5-2.3,8.7-13.1,20.3-25.5c6.2-6.6,11.5-11.6,15.4-15c4.2-3.6,9.5-8.3,17.3-13.5
	c5.1-3.4,9.1-5.7,13.4-8.1c5.7-3.3,10.5-5.8,16.9-8.7c4.2-1.8,10.5-3.9,23.2-8.1c1.4-0.4,4.1-1.3,7.8-2.3c2.4-0.6,4.4-1.1,5.6-1.3"
	/>
</svg>
